<svg width="48" height="48" viewBox="0 0 48 48" fill="none" xmlns="http://www.w3.org/2000/svg">
<path d="M25.6621 43.222C24.8009 44.2593 23.1991 44.2593 22.3379 43.222L9.49357 27.7518C7.88148 25.8102 7 23.3732 7 20.8581C7 11.5476 14.6112 4 24 4C33.3888 4 41 11.5476 41 20.8581C41 23.3732 40.1185 25.8102 38.5064 27.7518L25.6621 43.222Z" fill="#269088"/>
<path d="M24.4171 12.9219C24.6087 12.9219 24.7981 12.9616 24.9734 13.0384L26.991 13.9223C27.2501 14.0358 27.4828 14.2011 27.6748 14.4077L30.1433 17.0639C30.2377 17.1655 30.3937 17.1811 30.5067 17.1003L33.1625 15.2007C33.6735 14.8351 34.3896 14.9722 34.7268 15.5001C35.0402 15.9909 34.9082 16.6395 34.4273 16.9712L30.8138 19.4641C30.1068 19.9518 29.1406 19.819 28.594 19.1591L26.9527 17.1777C26.8303 17.03 26.5967 17.0496 26.501 17.2156L24.3267 20.9889C24.2594 21.1056 24.2877 21.2536 24.3936 21.3376L27.6284 23.9038C28.1875 24.3474 28.3948 25.0975 28.1418 25.7617L25.7962 31.9186C25.5711 32.5095 24.9134 32.8164 24.3108 32.6115C23.7021 32.4046 23.3731 31.7519 23.5715 31.1449L25.2706 25.9458C25.3433 25.7232 25.2649 25.4794 25.0757 25.3396L21.043 22.3607C20.0428 21.6218 19.7523 20.2609 20.3649 19.1835L22.483 15.4582C22.5331 15.3702 22.4726 15.2606 22.3708 15.2549L19.3969 15.0911C19.2949 15.0855 19.1982 15.1364 19.1456 15.2232L17.3337 18.2176C17.0402 18.7027 16.4076 18.863 15.9155 18.5769C15.4125 18.2845 15.25 17.6394 15.5553 17.1468L17.6492 13.7674C17.9748 13.242 18.552 12.9219 19.1739 12.9219H24.4171ZM19.5929 23.0076C19.631 22.9302 19.7311 22.9069 19.8001 22.9592L21.6903 24.3925C21.7436 24.433 21.7597 24.5057 21.7283 24.5646L20.4162 27.0323C20.1466 27.5395 19.6159 27.8568 19.0378 27.8568H14.3145C13.6958 27.8568 13.1943 27.3595 13.1943 26.746C13.1943 26.1325 13.6959 25.6352 14.3145 25.6352H17.5694C18.015 25.6352 18.4216 25.3834 18.6173 24.9864L19.5929 23.0076ZM27.5082 8.23157C28.8143 8.2316 29.8731 9.2816 29.8731 10.5768C29.873 11.8719 28.8143 12.9218 27.5082 12.9219C26.2022 12.9219 25.1433 11.872 25.1433 10.5768C25.1433 9.28158 26.2021 8.23157 27.5082 8.23157Z" fill="#F7F7ED"/>
</svg>
