<svg width="209" height="248" viewBox="0 0 209 248" fill="none" xmlns="http://www.w3.org/2000/svg">
<path d="M114.292 242.229C109.018 248.635 99.2083 248.635 93.934 242.229L15.2714 146.688C5.39844 134.696 0 119.646 0 104.113C0 46.613 46.613 0 104.113 0C161.613 0 208.226 46.613 208.226 104.113C208.226 119.646 202.828 134.696 192.955 146.688L114.292 242.229Z" fill="#269088"/>
<path d="M106.668 55.1002C107.841 55.1002 109.001 55.3456 110.074 55.8197L122.431 61.2788C124.017 61.9799 125.443 63.0006 126.619 64.2763L141.736 80.6806C142.315 81.3081 143.27 81.4045 143.962 80.9054L160.227 69.1739C163.357 66.9161 167.742 67.7626 169.807 71.0229C171.727 74.0541 170.918 78.0594 167.973 80.1084L145.843 95.5043C141.513 98.5161 135.596 97.6961 132.248 93.6207L122.196 81.3837C121.447 80.4715 120.016 80.5924 119.43 81.6175L106.114 104.921C105.702 105.642 105.875 106.556 106.524 107.074L126.335 122.923C129.758 125.662 131.028 130.295 129.479 134.397L115.114 172.421C113.735 176.071 109.707 177.965 106.017 176.7C102.289 175.422 100.274 171.392 101.489 167.643L111.895 135.534C112.34 134.159 111.86 132.654 110.701 131.79L86.0038 113.393C79.8782 108.83 78.099 100.425 81.8505 93.7713L94.8226 70.7644C95.1293 70.2204 94.7587 69.5437 94.1352 69.5089L75.9222 68.4971C75.2975 68.4625 74.7054 68.7765 74.3835 69.313L63.2867 87.806C61.4893 90.8017 57.6152 91.7914 54.6013 90.0246C51.5209 88.2189 50.5256 84.235 52.3949 81.1927L65.2189 60.3221C67.2127 57.0775 70.7481 55.1002 74.5564 55.1002H106.668ZM77.1225 117.388C77.3563 116.91 77.9692 116.766 78.3919 117.089L89.9678 125.941C90.2944 126.191 90.3926 126.64 90.2008 127.004L82.165 142.244C80.5135 145.376 77.2638 147.336 73.7232 147.336H44.7962C41.0074 147.336 37.936 144.265 37.936 140.476C37.936 136.687 41.0074 133.616 44.7962 133.616H64.7299C67.4589 133.615 69.9493 132.06 71.1481 129.609L77.1225 117.388ZM125.599 26.1337C133.597 26.1339 140.082 32.6185 140.082 40.6173C140.081 48.616 133.597 55.1 125.599 55.1002C117.6 55.1002 111.115 48.6161 111.115 40.6173C111.115 32.6184 117.6 26.1337 125.599 26.1337Z" fill="#F7F7ED"/>
</svg>
