<svg width="330" height="386" viewBox="0 0 330 386" fill="none" xmlns="http://www.w3.org/2000/svg">
<path d="M175.292 242.229C170.018 248.635 160.208 248.635 154.934 242.229L76.2714 146.688C66.3984 134.696 61 119.646 61 104.113C61 46.613 107.613 0 165.113 0C222.613 0 269.226 46.613 269.226 104.113C269.226 119.646 263.828 134.696 253.955 146.688L175.292 242.229Z" fill="#269088"/>
<path d="M167.668 55.1002C168.841 55.1002 170.001 55.3456 171.074 55.8197L183.431 61.2788C185.017 61.9799 186.443 63.0006 187.619 64.2763L202.736 80.6806C203.315 81.3081 204.27 81.4045 204.962 80.9054L221.227 69.1739C224.357 66.9161 228.742 67.7626 230.807 71.0229C232.727 74.0541 231.918 78.0594 228.973 80.1084L206.843 95.5043C202.513 98.5161 196.596 97.6961 193.248 93.6207L183.196 81.3837C182.447 80.4715 181.016 80.5924 180.43 81.6175L167.114 104.921C166.702 105.642 166.875 106.556 167.524 107.074L187.335 122.923C190.758 125.662 192.028 130.295 190.479 134.397L176.114 172.421C174.735 176.071 170.707 177.965 167.017 176.7C163.289 175.422 161.274 171.392 162.489 167.643L172.895 135.534C173.34 134.159 172.86 132.654 171.701 131.79L147.004 113.393C140.878 108.83 139.099 100.425 142.85 93.7713L155.823 70.7644C156.129 70.2204 155.759 69.5437 155.135 69.5089L136.922 68.4971C136.298 68.4625 135.705 68.7765 135.383 69.313L124.287 87.806C122.489 90.8017 118.615 91.7914 115.601 90.0246C112.521 88.2189 111.526 84.235 113.395 81.1927L126.219 60.3221C128.213 57.0775 131.748 55.1002 135.556 55.1002H167.668ZM138.122 117.388C138.356 116.91 138.969 116.766 139.392 117.089L150.968 125.941C151.294 126.191 151.393 126.64 151.201 127.004L143.165 142.244C141.514 145.376 138.264 147.336 134.723 147.336H105.796C102.007 147.336 98.936 144.265 98.936 140.476C98.936 136.687 102.007 133.616 105.796 133.616H125.73C128.459 133.615 130.949 132.06 132.148 129.609L138.122 117.388ZM186.599 26.1337C194.597 26.1339 201.082 32.6185 201.082 40.6173C201.081 48.616 194.597 55.1 186.599 55.1002C178.6 55.1002 172.115 48.6161 172.115 40.6173C172.115 32.6184 178.6 26.1337 186.599 26.1337Z" fill="#F7F7ED"/>
<path d="M39.6901 267.034C41.2113 267.034 42.4446 268.265 42.4446 269.784V275.44C42.4444 276.959 41.2112 278.19 39.6901 278.19H16.3078C14.7866 278.19 13.5533 279.421 13.5533 280.94V290.69C13.5534 292.209 14.7866 293.44 16.3078 293.44H36.873C38.3942 293.44 39.6275 294.671 39.6275 296.19V301.846C39.6274 303.365 38.3941 304.596 36.873 304.596H16.3078C14.7866 304.597 13.5533 305.828 13.5533 307.346V328.284C13.5533 329.802 12.32 331.034 10.7988 331.034H2.7545C1.23327 331.034 1.1357e-05 329.802 0 328.284V269.784C0 268.265 1.23326 267.034 2.7545 267.034H39.6901Z" fill="#141414"/>
<path d="M62.3596 267.034C63.8808 267.034 65.1141 268.265 65.1141 269.784V328.284C65.1141 329.802 63.8808 331.034 62.3596 331.034H54.3153C52.7941 331.034 51.5608 329.802 51.5608 328.284V269.784C51.5608 268.265 52.7941 267.034 54.3153 267.034H62.3596Z" fill="#141414"/>
<path d="M123.718 267.034C125.239 267.034 126.472 268.265 126.472 269.784V275.44C126.472 276.959 125.239 278.19 123.718 278.19H109.601C108.08 278.19 106.846 279.421 106.846 280.94V328.284C106.846 329.802 105.613 331.034 104.092 331.034H96.2044C94.6832 331.034 93.4499 329.802 93.4499 328.284V280.94C93.4499 279.421 92.2165 278.19 90.6954 278.19H76.5786C75.0574 278.19 73.8242 276.959 73.8241 275.44V269.784C73.8241 268.265 75.0573 267.034 76.5786 267.034H123.718Z" fill="#141414"/>
<path d="M150.01 267.034C151.128 267.034 152.134 267.708 152.558 268.74L169.369 309.687C169.455 309.897 169.66 310.033 169.887 310.033C170.114 310.033 170.319 309.897 170.405 309.687L187.216 268.74C187.64 267.708 188.647 267.034 189.765 267.034H201.877C203.398 267.034 204.631 268.265 204.631 269.784V328.284C204.631 329.802 203.398 331.034 201.877 331.034H194.239C192.718 331.034 191.485 329.802 191.485 328.284V289.694C191.485 289.519 191.343 289.377 191.167 289.377C191.038 289.377 190.921 289.456 190.873 289.576L175.056 328.994C174.637 330.037 173.625 330.721 172.499 330.721H167.277C166.15 330.721 165.137 330.036 164.719 328.991L148.901 289.42C148.853 289.3 148.736 289.221 148.606 289.221C148.431 289.221 148.289 289.363 148.289 289.538V328.284C148.289 329.802 147.056 331.034 145.535 331.034H137.897C136.376 331.034 135.143 329.802 135.143 328.284V269.784C135.143 268.265 136.376 267.034 137.897 267.034H150.01Z" fill="#141414"/>
<path fill-rule="evenodd" clip-rule="evenodd" d="M249.955 267.034C251.131 267.034 252.176 267.778 252.559 268.887L272.759 327.387C273.375 329.173 272.047 331.034 270.155 331.034H261.496C260.302 331.034 259.245 330.266 258.876 329.133L254.748 316.44H231.603L227.466 329.134C227.097 330.267 226.04 331.034 224.847 331.034H216.189C214.296 331.034 212.967 329.172 213.585 327.386L233.813 268.886C234.196 267.778 235.242 267.034 236.416 267.034H249.955ZM243.186 281.659C243.037 281.659 242.905 281.755 242.859 281.896L235.044 305.877H251.313L243.514 281.896C243.468 281.754 243.335 281.659 243.186 281.659Z" fill="#141414"/>
<path fill-rule="evenodd" clip-rule="evenodd" d="M307.025 267.034C311.887 267.034 316.029 267.961 319.451 269.815C322.874 271.648 325.483 274.2 327.277 277.471C329.093 280.721 330 284.471 330 288.721C330 292.971 329.082 296.721 327.246 299.971C325.409 303.221 322.749 305.752 319.264 307.565C315.8 309.377 311.606 310.284 306.681 310.284H295.287V328.284C295.287 329.802 294.054 331.034 292.533 331.034H284.488C282.967 331.034 281.734 329.802 281.734 328.284V269.784C281.734 268.265 282.967 267.034 284.488 267.034H307.025ZM298.042 278.096C296.52 278.096 295.287 279.327 295.287 280.846V299.44H304.49C307.098 299.44 309.248 298.992 310.938 298.096C312.649 297.179 313.922 295.919 314.757 294.315C315.612 292.69 316.04 290.825 316.04 288.721C316.04 286.596 315.612 284.742 314.757 283.158C313.922 281.554 312.649 280.315 310.938 279.44C309.227 278.544 307.057 278.096 304.427 278.096H298.042Z" fill="#141414"/>
<path d="M322.853 377.419C321.386 377.419 320.065 377.159 318.891 376.64C317.739 376.098 316.824 375.375 316.147 374.472C315.47 373.546 315.108 372.519 315.063 371.39H319.06C319.128 372.18 319.5 372.846 320.178 373.388C320.878 373.907 321.747 374.167 322.786 374.167C323.869 374.167 324.705 373.964 325.292 373.557C325.902 373.128 326.206 372.587 326.206 371.932C326.206 371.232 325.868 370.712 325.19 370.374C324.536 370.035 323.486 369.662 322.04 369.256C320.64 368.872 319.5 368.5 318.62 368.138C317.739 367.777 316.971 367.224 316.316 366.479C315.684 365.733 315.368 364.751 315.368 363.532C315.368 362.538 315.662 361.635 316.249 360.822C316.836 359.987 317.671 359.332 318.755 358.858C319.861 358.384 321.126 358.146 322.549 358.146C324.671 358.146 326.376 358.688 327.663 359.772C328.973 360.834 329.673 362.29 329.763 364.142H325.902C325.834 363.306 325.495 362.64 324.886 362.143C324.276 361.646 323.452 361.398 322.413 361.398C321.397 361.398 320.618 361.59 320.076 361.974C319.534 362.358 319.263 362.866 319.263 363.498C319.263 363.995 319.444 364.412 319.805 364.751C320.166 365.09 320.607 365.361 321.126 365.564C321.645 365.745 322.413 365.982 323.429 366.275C324.784 366.637 325.89 367.009 326.748 367.393C327.629 367.754 328.385 368.296 329.018 369.019C329.65 369.741 329.977 370.701 330 371.898C330 372.959 329.706 373.907 329.119 374.743C328.532 375.578 327.697 376.233 326.613 376.707C325.552 377.182 324.298 377.419 322.853 377.419Z" fill="#141414"/>
<path d="M303.499 358.146C304.967 358.146 306.277 358.451 307.428 359.061C308.603 359.671 309.517 360.574 310.172 361.771C310.827 362.967 311.154 364.413 311.154 366.106V377.114H307.327V366.682C307.327 365.011 306.909 363.735 306.074 362.854C305.238 361.951 304.098 361.5 302.653 361.5C301.207 361.5 300.056 361.951 299.198 362.854C298.362 363.735 297.945 365.011 297.945 366.682V377.114H294.083V358.451H297.945V360.585C298.577 359.817 299.378 359.219 300.349 358.79C301.343 358.361 302.393 358.146 303.499 358.146Z" fill="#141414"/>
<path d="M280.579 377.419C278.818 377.419 277.226 377.024 275.804 376.233C274.381 375.42 273.263 374.291 272.451 372.846C271.638 371.379 271.231 369.685 271.231 367.766C271.231 365.869 271.649 364.187 272.484 362.719C273.32 361.251 274.46 360.122 275.905 359.332C277.35 358.542 278.965 358.146 280.749 358.146C282.533 358.146 284.147 358.542 285.592 359.332C287.037 360.122 288.178 361.251 289.013 362.719C289.849 364.187 290.266 365.869 290.266 367.766C290.266 369.662 289.837 371.345 288.979 372.812C288.121 374.28 286.947 375.42 285.457 376.233C283.989 377.024 282.363 377.419 280.579 377.419ZM280.579 374.066C281.573 374.066 282.499 373.828 283.357 373.354C284.237 372.88 284.949 372.169 285.491 371.22C286.033 370.272 286.304 369.12 286.304 367.766C286.304 366.411 286.044 365.271 285.524 364.345C285.005 363.396 284.316 362.685 283.458 362.211C282.6 361.737 281.675 361.5 280.681 361.5C279.688 361.5 278.762 361.737 277.904 362.211C277.068 362.685 276.402 363.396 275.905 364.345C275.409 365.271 275.16 366.411 275.16 367.766C275.16 369.775 275.668 371.333 276.684 372.44C277.723 373.524 279.021 374.066 280.579 374.066Z" fill="#141414"/>
<path d="M265.518 355.979C264.818 355.979 264.231 355.742 263.757 355.267C263.283 354.793 263.046 354.206 263.046 353.506C263.046 352.806 263.283 352.219 263.757 351.745C264.231 351.271 264.818 351.034 265.518 351.034C266.196 351.034 266.771 351.271 267.246 351.745C267.72 352.219 267.957 352.806 267.957 353.506C267.957 354.206 267.72 354.793 267.246 355.267C266.771 355.742 266.196 355.979 265.518 355.979ZM267.415 358.451V377.114H263.554V358.451H267.415Z" fill="#141414"/>
<path d="M255.456 361.601V371.932C255.456 372.632 255.614 373.14 255.931 373.456C256.269 373.75 256.834 373.896 257.624 373.896H259.995V377.114H256.947C255.208 377.114 253.876 376.708 252.95 375.895C252.024 375.082 251.561 373.761 251.561 371.932V361.601H249.36V358.451H251.561V353.811H255.456V358.451H259.995V361.601H255.456Z" fill="#141414"/>
<path d="M226.709 367.698C226.709 365.824 227.093 364.164 227.861 362.719C228.651 361.274 229.713 360.156 231.045 359.366C232.4 358.553 233.89 358.146 235.516 358.146C236.983 358.146 238.259 358.44 239.343 359.027C240.449 359.592 241.33 360.303 241.985 361.161V358.451H245.88V377.114H241.985V374.337C241.33 375.217 240.438 375.951 239.309 376.538C238.18 377.125 236.893 377.419 235.448 377.419C233.845 377.419 232.377 377.012 231.045 376.199C229.713 375.364 228.651 374.212 227.861 372.745C227.093 371.254 226.709 369.572 226.709 367.698ZM241.985 367.766C241.985 366.479 241.714 365.361 241.172 364.412C240.653 363.464 239.964 362.742 239.106 362.245C238.248 361.748 237.322 361.5 236.329 361.5C235.335 361.5 234.409 361.748 233.551 362.245C232.693 362.719 231.993 363.43 231.451 364.379C230.932 365.304 230.672 366.411 230.672 367.698C230.672 368.985 230.932 370.114 231.451 371.085C231.993 372.056 232.693 372.801 233.551 373.32C234.432 373.817 235.358 374.066 236.329 374.066C237.322 374.066 238.248 373.817 239.106 373.32C239.964 372.824 240.653 372.101 241.172 371.153C241.714 370.182 241.985 369.053 241.985 367.766Z" fill="#141414"/>
<path d="M206.4 367.766C206.4 365.846 206.784 364.164 207.552 362.719C208.342 361.251 209.426 360.122 210.804 359.332C212.181 358.542 213.762 358.146 215.545 358.146C217.803 358.146 219.666 358.688 221.134 359.772C222.624 360.834 223.629 362.358 224.148 364.345H219.982C219.644 363.419 219.102 362.696 218.357 362.177C217.612 361.658 216.674 361.398 215.545 361.398C213.965 361.398 212.7 361.963 211.752 363.092C210.826 364.198 210.363 365.756 210.363 367.766C210.363 369.775 210.826 371.345 211.752 372.474C212.7 373.603 213.965 374.167 215.545 374.167C217.781 374.167 219.26 373.185 219.982 371.22H224.148C223.607 373.117 222.59 374.63 221.1 375.759C219.61 376.866 217.758 377.419 215.545 377.419C213.762 377.419 212.181 377.024 210.804 376.233C209.426 375.42 208.342 374.291 207.552 372.846C206.784 371.379 206.4 369.685 206.4 367.766Z" fill="#141414"/>
<path d="M194.184 377.419C192.422 377.419 190.83 377.024 189.408 376.233C187.985 375.42 186.868 374.291 186.055 372.846C185.242 371.379 184.835 369.685 184.835 367.766C184.835 365.869 185.253 364.187 186.089 362.719C186.924 361.251 188.064 360.122 189.509 359.332C190.955 358.542 192.569 358.146 194.353 358.146C196.137 358.146 197.751 358.542 199.196 359.332C200.642 360.122 201.782 361.251 202.617 362.719C203.453 364.187 203.87 365.869 203.87 367.766C203.87 369.662 203.441 371.345 202.583 372.812C201.725 374.28 200.551 375.42 199.061 376.233C197.593 377.024 195.967 377.419 194.184 377.419ZM194.184 374.066C195.177 374.066 196.103 373.828 196.961 373.354C197.842 372.88 198.553 372.169 199.095 371.22C199.637 370.272 199.908 369.12 199.908 367.766C199.908 366.411 199.648 365.271 199.129 364.345C198.609 363.396 197.921 362.685 197.063 362.211C196.205 361.737 195.279 361.5 194.285 361.5C193.292 361.5 192.366 361.737 191.508 362.211C190.672 362.685 190.006 363.396 189.509 364.345C189.013 365.271 188.764 366.411 188.764 367.766C188.764 369.775 189.272 371.333 190.288 372.44C191.327 373.524 192.626 374.066 194.184 374.066Z" fill="#141414"/>
<path d="M181.019 352.05V377.114H177.158V352.05H181.019Z" fill="#141414"/>
<path d="M160.262 361.601V371.932C160.262 372.632 160.42 373.14 160.736 373.456C161.075 373.75 161.64 373.896 162.43 373.896H164.801V377.114H161.752C160.014 377.114 158.682 376.708 157.756 375.895C156.83 375.082 156.367 373.761 156.367 371.932V361.601H154.165V358.451H156.367V353.811H160.262V358.451H164.801V361.601H160.262Z" fill="#141414"/>
<path d="M146.62 361.161C147.184 360.213 147.929 359.479 148.855 358.959C149.803 358.417 150.921 358.146 152.208 358.146V362.143H151.226C149.713 362.143 148.561 362.527 147.771 363.295C147.003 364.063 146.62 365.395 146.62 367.291V377.114H142.758V358.451H146.62V361.161Z" fill="#141414"/>
<path d="M129.254 377.419C127.493 377.419 125.901 377.024 124.479 376.233C123.056 375.42 121.938 374.291 121.125 372.846C120.313 371.379 119.906 369.685 119.906 367.766C119.906 365.869 120.324 364.187 121.159 362.719C121.995 361.251 123.135 360.122 124.58 359.332C126.025 358.542 127.64 358.146 129.424 358.146C131.208 358.146 132.822 358.542 134.267 359.332C135.712 360.122 136.853 361.251 137.688 362.719C138.524 364.187 138.941 365.869 138.941 367.766C138.941 369.662 138.512 371.345 137.654 372.812C136.796 374.28 135.622 375.42 134.132 376.233C132.664 377.024 131.038 377.419 129.254 377.419ZM129.254 374.066C130.248 374.066 131.174 373.828 132.032 373.354C132.912 372.88 133.624 372.169 134.166 371.22C134.707 370.272 134.978 369.12 134.978 367.766C134.978 366.411 134.719 365.271 134.199 364.345C133.68 363.396 132.991 362.685 132.133 362.211C131.275 361.737 130.349 361.5 129.356 361.5C128.362 361.5 127.437 361.737 126.579 362.211C125.743 362.685 125.077 363.396 124.58 364.345C124.083 365.271 123.835 366.411 123.835 367.766C123.835 369.775 124.343 371.333 125.359 372.44C126.398 373.524 127.696 374.066 129.254 374.066Z" fill="#141414"/>
<path d="M102.065 361.195C102.72 360.337 103.612 359.614 104.741 359.027C105.87 358.44 107.146 358.146 108.569 358.146C110.194 358.146 111.673 358.553 113.006 359.366C114.36 360.156 115.422 361.274 116.189 362.719C116.957 364.164 117.341 365.824 117.341 367.698C117.341 369.572 116.957 371.254 116.189 372.745C115.422 374.212 114.36 375.364 113.006 376.199C111.673 377.012 110.194 377.419 108.569 377.419C107.146 377.419 105.881 377.136 104.775 376.572C103.669 375.985 102.765 375.262 102.065 374.404V385.988H98.2042V358.451H102.065V361.195ZM113.412 367.698C113.412 366.411 113.141 365.304 112.599 364.379C112.08 363.43 111.38 362.719 110.499 362.245C109.641 361.748 108.715 361.5 107.722 361.5C106.751 361.5 105.825 361.748 104.944 362.245C104.086 362.742 103.386 363.464 102.844 364.412C102.325 365.361 102.065 366.479 102.065 367.766C102.065 369.053 102.325 370.182 102.844 371.153C103.386 372.101 104.086 372.824 104.944 373.32C105.825 373.817 106.751 374.066 107.722 374.066C108.715 374.066 109.641 373.817 110.499 373.32C111.38 372.801 112.08 372.056 112.599 371.085C113.141 370.114 113.412 368.985 113.412 367.698Z" fill="#141414"/>
<path d="M86.8854 377.419C85.4177 377.419 84.0967 377.159 82.9226 376.64C81.771 376.098 80.8565 375.375 80.1791 374.472C79.5017 373.546 79.1404 372.519 79.0952 371.39H83.0919C83.1597 372.18 83.5322 372.846 84.2096 373.388C84.9096 373.907 85.779 374.167 86.8177 374.167C87.9015 374.167 88.737 373.964 89.3241 373.557C89.9337 373.128 90.2386 372.587 90.2386 371.932C90.2386 371.232 89.8999 370.712 89.2225 370.374C88.5676 370.035 87.5176 369.662 86.0725 369.256C84.6725 368.872 83.5322 368.5 82.6516 368.138C81.771 367.777 81.0032 367.224 80.3484 366.479C79.7162 365.733 79.4 364.751 79.4 363.532C79.4 362.538 79.6936 361.635 80.2807 360.822C80.8678 359.987 81.7032 359.332 82.7871 358.858C83.8935 358.384 85.158 358.146 86.5806 358.146C88.7031 358.146 90.4079 358.688 91.695 359.772C93.0046 360.834 93.7046 362.29 93.795 364.142H89.9337C89.866 363.306 89.5273 362.64 88.9176 362.143C88.308 361.646 87.4838 361.398 86.4451 361.398C85.429 361.398 84.65 361.59 84.108 361.974C83.5661 362.358 83.2951 362.866 83.2951 363.498C83.2951 363.995 83.4758 364.412 83.8371 364.751C84.1983 365.09 84.6387 365.361 85.158 365.564C85.6774 365.745 86.4451 365.982 87.4612 366.275C88.816 366.637 89.9224 367.009 90.7805 367.393C91.6611 367.754 92.4176 368.296 93.0498 369.019C93.682 369.741 94.0095 370.701 94.032 371.898C94.032 372.959 93.7385 373.907 93.1514 374.743C92.5643 375.578 91.7289 376.233 90.645 376.707C89.5837 377.182 88.3305 377.419 86.8854 377.419Z" fill="#141414"/>
<path d="M47.0708 367.698C47.0708 365.824 47.4547 364.164 48.2224 362.719C49.0127 361.274 50.074 360.156 51.4062 359.366C52.761 358.553 54.2626 358.147 55.911 358.147C57.1303 358.147 58.3271 358.418 59.5012 358.959C60.698 359.479 61.6463 360.179 62.3463 361.059V352.05H66.2414V377.114H62.3463V374.303C61.7141 375.206 60.8335 375.951 59.7044 376.538C58.598 377.125 57.3222 377.419 55.8771 377.419C54.2513 377.419 52.761 377.012 51.4062 376.199C50.074 375.364 49.0127 374.212 48.2224 372.745C47.4547 371.254 47.0708 369.572 47.0708 367.698ZM62.3463 367.766C62.3463 366.479 62.0754 365.361 61.5334 364.413C61.0141 363.464 60.3254 362.742 59.4674 362.245C58.6093 361.748 57.6835 361.5 56.69 361.5C55.6965 361.5 54.7707 361.748 53.9126 362.245C53.0546 362.719 52.3546 363.43 51.8127 364.379C51.2933 365.305 51.0336 366.411 51.0336 367.698C51.0336 368.985 51.2933 370.114 51.8127 371.085C52.3546 372.056 53.0546 372.801 53.9126 373.321C54.7932 373.817 55.719 374.066 56.69 374.066C57.6835 374.066 58.6093 373.817 59.4674 373.321C60.3254 372.824 61.0141 372.101 61.5334 371.153C62.0754 370.182 62.3463 369.053 62.3463 367.766Z" fill="#141414"/>
<path d="M35.7779 358.146C37.2456 358.146 38.5553 358.451 39.7069 359.061C40.881 359.671 41.7955 360.574 42.4504 361.771C43.1052 362.967 43.4326 364.413 43.4326 366.106V377.114H39.6052V366.682C39.6052 365.011 39.1875 363.735 38.352 362.854C37.5166 361.951 36.3763 361.5 34.9311 361.5C33.486 361.5 32.3344 361.951 31.4764 362.854C30.6409 363.735 30.2232 365.011 30.2232 366.682V377.114H26.3619V358.451H30.2232V360.585C30.8554 359.817 31.657 359.219 32.628 358.79C33.6215 358.361 34.6715 358.146 35.7779 358.146Z" fill="#141414"/>
<path d="M19.3959 355.979C18.6959 355.979 18.1088 355.742 17.6346 355.267C17.1604 354.793 16.9233 354.206 16.9233 353.506C16.9233 352.806 17.1604 352.219 17.6346 351.745C18.1088 351.271 18.6959 351.034 19.3959 351.034C20.0733 351.034 20.6491 351.271 21.1233 351.745C21.5975 352.219 21.8345 352.806 21.8345 353.506C21.8345 354.206 21.5975 354.793 21.1233 355.267C20.6491 355.742 20.0733 355.979 19.3959 355.979ZM21.2926 358.451V377.114H17.4314V358.451H21.2926Z" fill="#141414"/>
<path d="M13.853 353.574V356.724H3.86122V363.667H11.6514V366.817H3.86122V377.114H0V353.574H13.853Z" fill="#141414"/>
</svg>
