<svg width="40" height="40" viewBox="0 0 40 40" fill="none" xmlns="http://www.w3.org/2000/svg">
<path d="M17.8282 4.08735C15.6968 4.40207 13.4396 5.24829 11.8558 6.31131C11.2342 6.73092 10.3313 7.47224 10.5755 7.36034C10.6347 7.33237 10.5385 7.45825 10.3535 7.64008C10.1759 7.81492 10.013 7.96179 9.99083 7.96179C9.96863 7.96179 10.087 7.8359 10.2425 7.68204C10.3979 7.52818 10.4941 7.4023 10.4497 7.4023C10.3387 7.4023 9.02134 8.78003 8.66611 9.26958C8.47369 9.52834 8.45888 9.62625 8.6291 9.49337C8.73271 9.40945 8.73271 9.42344 8.6217 9.58429C8.46629 9.80808 8.41448 9.83606 8.48109 9.66122C8.5847 9.40246 8.35527 9.66821 7.99264 10.2277C5.5134 14.0462 5.33578 18.7598 7.52639 22.6762C8.03704 23.5854 8.87333 24.7883 8.93993 24.6904C8.96953 24.6414 9.02134 24.6624 9.08795 24.7673C9.18416 24.9072 9.18416 24.9142 9.07314 24.8233C8.83632 24.6414 8.95473 24.8512 9.39878 25.4317C9.643 25.7464 9.87242 25.9912 9.90943 25.9702C9.93903 25.9492 10.013 25.9912 10.0648 26.0611C10.1611 26.166 10.1537 26.173 10.0426 26.0821C9.6578 25.8024 9.97603 26.201 12.9881 29.7817C15.8004 33.1176 17.2361 34.7541 17.3028 34.7121C17.3398 34.6982 17.4434 34.7681 17.5396 34.873L17.7172 35.0618L17.5174 34.894C17.399 34.7961 17.3102 34.7541 17.3102 34.7961C17.3102 34.908 17.6506 35.1737 17.7172 35.1178C17.7468 35.0828 17.7542 35.1038 17.7246 35.1527C17.6876 35.2017 17.806 35.3975 18.0206 35.6423C18.6645 36.3696 18.9679 36.6424 19.3379 36.8242C19.8338 37.062 20.2408 37.062 20.7663 36.8032C21.2251 36.5794 21.5582 36.2367 23.8302 33.5722C24.8071 32.4253 24.9551 32.2364 24.7849 32.3343C24.6591 32.4043 24.7035 32.3273 24.9329 32.0546C25.0587 31.9077 25.1549 31.8308 25.1549 31.8798C25.1549 31.9357 25.2289 31.9077 25.3399 31.8098C25.525 31.642 25.599 31.4811 25.4361 31.572C25.3843 31.6 25.3769 31.593 25.4065 31.5371C25.4361 31.4951 25.488 31.4741 25.525 31.4951C25.5546 31.5161 26.228 30.7678 27.0199 29.8376C29.1365 27.32 29.2475 27.1941 29.2031 27.1521C29.1883 27.1311 29.0995 27.2011 29.0107 27.306C28.9293 27.4109 28.8553 27.4598 28.8553 27.4249C28.8553 27.3339 29.1883 27.0472 29.2401 27.0962C29.2993 27.1451 30.6463 25.4597 31.3271 24.4876C31.638 24.054 31.8082 23.7462 31.7712 23.6903C31.7416 23.6413 31.749 23.6204 31.8008 23.6553C31.8896 23.7043 32.4742 22.7671 32.8813 21.9279C35.4049 16.6688 33.5399 10.1578 28.4852 6.59105C26.8275 5.42312 24.5703 4.50697 22.4537 4.1433C21.5064 3.98245 18.7681 3.94748 17.8282 4.08735ZM23.7118 7.0806C25.0809 7.71701 25.3917 9.37448 24.3482 10.5004C23.9708 10.9061 23.3787 11.1439 22.7497 11.1369C21.8542 11.1299 21.1881 10.7312 20.7737 9.96894C20.4925 9.44442 20.4333 8.94788 20.5961 8.44434C20.9883 7.14354 22.4611 6.50713 23.7118 7.0806ZM20.6035 11.3257C21.0253 11.4376 22.4093 12.116 22.6831 12.3467C22.8089 12.4516 23.3935 13.1021 23.9708 13.7874C24.5481 14.4728 25.0661 15.0533 25.1253 15.0742C25.2585 15.1232 25.4287 15.0183 26.9015 13.9902C28.093 13.172 28.1522 13.137 28.5074 13.137C28.8331 13.137 28.9071 13.165 29.1513 13.4028C29.4991 13.7315 29.588 14.0672 29.4177 14.4098C29.3289 14.5847 28.8405 14.9623 27.5602 15.8645C25.5102 17.3052 25.1623 17.501 24.7553 17.4381C24.3334 17.3751 24.1632 17.2352 23.1567 16.1093C22.6535 15.5498 22.1946 15.0952 22.1428 15.0952C22.0244 15.0952 21.9356 15.2281 20.8699 17.0254C19.893 18.6689 19.8486 18.7598 19.9818 18.9207C20.1002 19.0536 22.9125 21.1796 22.9717 21.1796C23.0013 21.1796 22.9939 21.1376 22.9643 21.0887C22.9347 21.0467 22.9273 21.0188 22.9569 21.0397C22.9791 21.0607 23.0013 21.1027 23.0087 21.1446C23.0235 21.1796 23.1345 21.3894 23.2529 21.5992C23.6082 22.1867 23.5786 22.3755 22.7645 24.6065C21.8024 27.236 21.4028 28.2781 21.2769 28.5159C21.0771 28.8795 20.7441 29.0823 20.3592 29.0823C19.4638 29.0823 19.0937 28.369 19.4564 27.3619C19.9966 25.8933 20.9365 22.949 20.9069 22.8301C20.8847 22.7462 20.7071 22.5713 20.5147 22.4385C16.5035 19.627 16.2518 19.4102 16.0224 18.571C15.8374 17.9066 15.8596 17.8437 17.3176 15.326C17.88 14.3679 18.287 13.5706 18.2944 13.4517L18.3092 13.2419L16.8587 13.2209C15.5488 13.207 15.4008 13.2139 15.2972 13.3258C15.2305 13.3958 14.8235 14.0322 14.3869 14.7455C13.9502 15.4589 13.5284 16.1093 13.447 16.1932C13.0547 16.5918 12.4035 16.5499 11.989 16.1093C11.73 15.8295 11.6782 15.4379 11.8706 15.1022C12.063 14.7385 13.8392 11.9341 14.002 11.7243C14.2611 11.3956 14.5349 11.2907 15.312 11.2488C16.4961 11.1858 20.2778 11.2418 20.6035 11.3257ZM16.6959 21.0887C17.1473 21.4454 17.5396 21.7671 17.5618 21.802C17.6432 21.9209 16.3111 24.3547 16.052 24.5575C15.6672 24.8722 15.4008 24.8932 12.8697 24.8722C10.6125 24.8512 10.5015 24.8442 10.3017 24.7044C10.1907 24.6274 10.013 24.4526 9.92423 24.3197C9.77621 24.1239 9.75401 24.019 9.78361 23.7043C9.80582 23.3686 9.85022 23.2917 10.1166 23.0539L10.4201 22.7881H12.3443C14.0612 22.7881 14.2759 22.7741 14.4091 22.6622C14.5423 22.5643 15.0011 21.6412 15.4896 20.5222C15.5932 20.2844 15.6228 20.2635 15.7412 20.3474C15.8078 20.4033 16.237 20.732 16.6959 21.0887Z" fill="#268F89"/>
</svg>
