<svg width="200" height="54" viewBox="0 0 200 54" fill="none" xmlns="http://www.w3.org/2000/svg">
<path d="M24.8188 52.9498C23.6735 54.3501 21.5433 54.3501 20.3979 52.9498L3.31621 32.065C1.17228 29.4437 0 26.1539 0 22.7585C0 10.1893 10.1221 0 22.6084 0C35.0946 0 45.2167 10.1893 45.2167 22.7585C45.2167 26.1539 44.0444 29.4437 41.9005 32.065L24.8188 52.9498Z" fill="#269088"/>
<path d="M23.1631 12.0446C23.4179 12.0446 23.6698 12.0982 23.9028 12.2018L26.5861 13.3952C26.9306 13.5484 27.2402 13.7715 27.4955 14.0504L30.7783 17.6363C30.9039 17.7734 31.1114 17.7945 31.2617 17.6854L34.7935 15.121C35.4732 14.6274 36.4255 14.8125 36.8739 15.5252C37.2908 16.1878 37.1152 17.0633 36.4756 17.5112L31.67 20.8766C30.7298 21.535 29.4449 21.3557 28.7179 20.4649L26.5351 17.79C26.3723 17.5906 26.0617 17.617 25.9344 17.8411L23.0428 22.935C22.9533 23.0926 22.991 23.2924 23.1318 23.4058L27.4338 26.8702C28.1773 27.469 28.453 28.4817 28.1165 29.3783L24.9971 37.6901C24.6977 38.4879 23.8231 38.9021 23.0217 38.6256C22.2122 38.3462 21.7746 37.4651 22.0384 36.6456L24.2981 29.6268C24.3948 29.3264 24.2905 28.9973 24.0389 28.8086L18.6759 24.787C17.3457 23.7895 16.9593 21.9523 17.774 20.4978L20.5909 15.4687C20.6575 15.3497 20.577 15.2018 20.4416 15.1942L16.4866 14.973C16.351 14.9655 16.2224 15.0341 16.1525 15.1514L13.7428 19.1938C13.3525 19.8487 12.5112 20.065 11.8568 19.6788C11.1878 19.2841 10.9717 18.4132 11.3776 17.7482L14.1624 13.186C14.5953 12.4768 15.3631 12.0446 16.19 12.0446H23.1631ZM16.7473 25.6603C16.7981 25.5558 16.9311 25.5243 17.0229 25.595L19.5367 27.5299C19.6076 27.5846 19.6289 27.6828 19.5873 27.7623L17.8423 31.0937C17.4836 31.7783 16.778 32.2067 16.0091 32.2067H9.72757C8.90482 32.2067 8.23785 31.5354 8.23785 30.7071C8.23786 29.8789 8.90482 29.2076 9.72757 29.2075H14.0562C14.6488 29.2075 15.1896 28.8676 15.4499 28.3317L16.7473 25.6603ZM27.274 5.71266C29.0109 5.7127 30.4189 7.1302 30.4189 8.87869C30.4189 10.6272 29.0109 12.0445 27.274 12.0446C25.537 12.0446 24.1289 10.6272 24.1288 8.87869C24.1288 7.13018 25.537 5.71266 27.274 5.71266Z" fill="#F7F7ED"/>
<path d="M73.4222 13.1671C74.0854 13.1672 74.6232 13.7075 74.6232 14.3741V16.8568C74.6231 17.5233 74.0854 18.0637 73.4222 18.0637H63.2273C62.564 18.0638 62.0263 18.6042 62.0263 19.2707V23.55C62.0263 24.2165 62.5641 24.7569 63.2273 24.757H72.1939C72.8572 24.757 73.3949 25.2974 73.3949 25.964V28.4466C73.3948 29.1131 72.8571 29.6535 72.1939 29.6536H63.2273C62.564 29.6536 62.0263 30.194 62.0263 30.8606V40.05C62.0263 40.7166 61.4886 41.257 60.8253 41.257H57.3179C56.6547 41.257 56.1169 40.7166 56.1169 40.05V14.3741C56.1169 13.7075 56.6547 13.1671 57.3179 13.1671H73.4222Z" fill="#141414"/>
<path d="M83.3063 13.1671C83.9696 13.1671 84.5073 13.7075 84.5073 14.3741V40.05C84.5073 40.7166 83.9696 41.257 83.3063 41.257H79.7989C79.1356 41.257 78.5979 40.7166 78.5979 40.05V14.3741C78.5979 13.7075 79.1356 13.1671 79.7989 13.1671H83.3063Z" fill="#141414"/>
<path d="M110.059 13.1671C110.722 13.1671 111.26 13.7075 111.26 14.3741V16.8568C111.26 17.5233 110.722 18.0637 110.059 18.0637H103.904C103.241 18.0637 102.703 18.6041 102.703 19.2707V40.05C102.703 40.7166 102.165 41.257 101.502 41.257H98.063C97.3997 41.257 96.862 40.7166 96.862 40.05V19.2707C96.862 18.6042 96.3242 18.0638 95.661 18.0637H89.5059C88.8427 18.0637 88.305 17.5233 88.3049 16.8568V14.3741C88.3049 13.7075 88.8426 13.1671 89.5059 13.1671H110.059Z" fill="#141414"/>
<path d="M121.523 13.1671C122.01 13.1672 122.449 13.4631 122.634 13.9162L129.963 31.8878C130.001 31.9799 130.09 32.0399 130.189 32.0399C130.288 32.0398 130.378 31.9798 130.415 31.8878L137.745 13.9162C137.93 13.4631 138.369 13.1671 138.856 13.1671H144.137C144.8 13.1671 145.338 13.7075 145.338 14.3741V40.05C145.338 40.7166 144.8 41.257 144.137 41.257H140.807C140.144 41.257 139.606 40.7166 139.606 40.05V23.113C139.606 23.0362 139.544 22.9739 139.468 22.9739C139.411 22.9739 139.36 23.0084 139.339 23.0611L132.443 40.3618C132.26 40.8197 131.819 41.12 131.328 41.12H129.051C128.56 41.12 128.118 40.819 127.936 40.3603L121.039 22.9928C121.018 22.94 120.967 22.9053 120.911 22.9052C120.834 22.9052 120.772 22.9676 120.772 23.0443V40.05C120.772 40.7166 120.235 41.257 119.571 41.257H116.241C115.578 41.257 115.04 40.7166 115.04 40.05V14.3741C115.04 13.7075 115.578 13.1671 116.241 13.1671H121.523Z" fill="#141414"/>
<path fill-rule="evenodd" clip-rule="evenodd" d="M165.1 13.1671C165.612 13.1671 166.068 13.4939 166.235 13.9807L175.042 39.6566C175.311 40.4404 174.732 41.257 173.907 41.257H170.132C169.611 41.257 169.15 40.9202 168.989 40.4228L167.19 34.8517H157.098L155.294 40.4234C155.133 40.9205 154.672 41.257 154.152 41.257H150.377C149.552 41.257 148.973 40.4399 149.242 39.656L158.062 13.9801C158.229 13.4936 158.684 13.1672 159.197 13.1671H165.1ZM162.148 19.586C162.083 19.5861 162.026 19.6282 162.006 19.6903L158.598 30.2158H165.692L162.291 19.6903C162.271 19.6281 162.213 19.586 162.148 19.586Z" fill="#141414"/>
<path fill-rule="evenodd" clip-rule="evenodd" d="M189.983 13.1671C192.103 13.1671 193.909 13.5739 195.401 14.3877C196.893 15.1923 198.03 16.3126 198.813 17.7481C199.604 19.1745 200 20.8204 200 22.6857C200 24.5511 199.6 26.1971 198.799 27.6236C197.998 29.05 196.838 30.1609 195.319 30.9564C193.809 31.7519 191.98 32.1498 189.833 32.1498H184.865V40.05C184.865 40.7166 184.327 41.257 183.664 41.257H180.156C179.493 41.257 178.955 40.7166 178.955 40.05V14.3741C178.955 13.7075 179.493 13.1671 180.156 13.1671H189.983ZM186.066 18.0225C185.403 18.0225 184.865 18.5629 184.865 19.2295V27.3905H188.877C190.015 27.3905 190.952 27.1937 191.689 26.8006C192.435 26.3982 192.99 25.845 193.354 25.1409C193.727 24.4277 193.913 23.6092 193.913 22.6857C193.913 21.7531 193.727 20.9392 193.354 20.2443C192.99 19.5403 192.435 18.9962 191.689 18.6121C190.943 18.219 189.996 18.0225 188.85 18.0225H186.066Z" fill="#141414"/>
</svg>
