<svg width="40" height="40" viewBox="0 0 40 40" fill="none" xmlns="http://www.w3.org/2000/svg">
<path d="M19.9999 34.0696C19.6666 34.0696 19.3309 34.0093 18.9928 33.8888C18.6551 33.7685 18.3612 33.5833 18.1112 33.3333L15.6803 31.0971C12.4026 28.0693 9.52534 25.1457 7.04867 22.3263C4.57172 19.5068 3.33325 16.5092 3.33325 13.3333C3.33325 10.7964 4.18506 8.67598 5.88867 6.97209C7.59256 5.26848 9.70367 4.41667 12.222 4.41667C13.6573 4.41667 15.0555 4.74764 16.4166 5.40959C17.7777 6.07181 18.9721 7.10195 19.9999 8.50001C21.1202 7.10195 22.3331 6.07181 23.6387 5.40959C24.9442 4.74764 26.3239 4.41667 27.7778 4.41667C30.2962 4.41667 32.4073 5.26848 34.1112 6.97209C35.8148 8.67598 36.6666 10.7964 36.6666 13.3333C36.6666 16.5092 35.4305 19.5092 32.9583 22.3333C30.486 25.1575 27.6017 28.0835 24.3053 31.1113L21.8887 33.3333C21.6387 33.5833 21.3448 33.7685 21.007 33.8888C20.6689 34.0093 20.3333 34.0696 19.9999 34.0696Z" fill="#269088"/>
</svg>
