<svg width="40" height="40" viewBox="0 0 40 40" fill="none" xmlns="http://www.w3.org/2000/svg">
<path d="M19.9999 34.0696C19.6721 34.0696 19.3385 34.0106 18.9991 33.8925C18.6596 33.7745 18.3612 33.5857 18.1037 33.3263L15.6803 31.0971C12.4026 28.0693 9.52534 25.1457 7.04867 22.3263C4.57172 19.5068 3.33325 16.5092 3.33325 13.3333C3.33325 10.7933 4.18506 8.67223 5.88867 6.97001C7.59256 5.26778 9.70367 4.41667 12.222 4.41667C13.6573 4.41667 15.0555 4.74764 16.4166 5.40959C17.7777 6.07181 18.9721 7.10195 19.9999 8.50001C21.1202 7.10195 22.3331 6.07181 23.6387 5.40959C24.9442 4.74764 26.3239 4.41667 27.7778 4.41667C30.2962 4.41667 32.4073 5.26778 34.1112 6.97001C35.8148 8.67223 36.6666 10.7933 36.6666 13.3333C36.6666 16.5092 35.4305 19.5092 32.9583 22.3333C30.486 25.1575 27.6017 28.0835 24.3053 31.1113L21.8887 33.3333C21.6342 33.5903 21.3391 33.7772 21.0033 33.8942C20.6677 34.0111 20.3333 34.0696 19.9999 34.0696ZM18.7499 11.4446C17.9813 10.1574 17.0369 9.12723 15.9166 8.35417C14.7963 7.58112 13.5648 7.19459 12.222 7.19459C10.4442 7.19459 8.98131 7.7732 7.83325 8.93042C6.6852 10.0879 6.11117 11.5596 6.11117 13.3454C6.11117 14.8929 6.64242 16.5269 7.70492 18.2475C8.76742 19.9678 10.0383 21.6367 11.5174 23.2542C12.9966 24.8717 14.5255 26.3796 16.1041 27.7779C17.6827 29.176 18.9813 30.3426 19.9999 31.2779C21.0185 30.3613 22.3171 29.1992 23.8958 27.7917C25.4744 26.3842 27.0021 24.8657 28.4791 23.2363C29.956 21.6065 31.2269 19.9311 32.2916 18.21C33.3563 16.4889 33.8887 14.8633 33.8887 13.3333C33.8887 11.5556 33.3101 10.0879 32.1528 8.93042C30.9953 7.7732 29.537 7.19459 27.7778 7.19459C26.4167 7.19459 25.1806 7.57653 24.0695 8.34042C22.9584 9.10431 22.0001 10.139 21.1945 11.4446C21.037 11.6851 20.8564 11.861 20.6528 11.9721C20.4489 12.0832 20.222 12.1388 19.972 12.1388C19.722 12.1388 19.4906 12.0832 19.2778 11.9721C19.0648 11.861 18.8888 11.6851 18.7499 11.4446Z" fill="#E0E0E0"/>
</svg>
