<svg width="40" height="40" viewBox="0 0 40 40" fill="none" xmlns="http://www.w3.org/2000/svg">
<path d="M28.4999 36.6667C27.1574 36.6667 26.0162 36.1968 25.0762 35.2571C24.1364 34.3171 23.6666 33.1758 23.6666 31.8333C23.6666 31.6297 23.7267 31.1853 23.847 30.5L11.6387 23.3613C11.1892 23.8213 10.6695 24.1815 10.0795 24.4421C9.4895 24.7029 8.85186 24.8333 8.16659 24.8333C6.82409 24.8333 5.68284 24.3635 4.74284 23.4238C3.80311 22.4838 3.33325 21.3425 3.33325 20C3.33325 18.6575 3.80311 17.5163 4.74284 16.5763C5.68284 15.6365 6.82409 15.1667 8.16659 15.1667C8.83325 15.1667 9.45825 15.2921 10.0416 15.5429C10.6249 15.7938 11.1388 16.1406 11.5833 16.5833L23.847 9.5C23.7914 9.28694 23.7476 9.07167 23.7153 8.85417C23.6828 8.63667 23.6666 8.4075 23.6666 8.16667C23.6666 6.82417 24.1364 5.68292 25.0762 4.74292C26.0162 3.80319 27.1574 3.33333 28.4999 3.33333C29.8424 3.33333 30.9837 3.80319 31.9237 4.74292C32.8634 5.68292 33.3333 6.82417 33.3333 8.16667C33.3333 9.50917 32.8634 10.6504 31.9237 11.5904C30.9837 12.5301 29.8424 13 28.4999 13C27.8466 13 27.2342 12.8774 26.6628 12.6321C26.0912 12.3865 25.5831 12.0554 25.1387 11.6388L12.7916 18.6113C12.8658 18.824 12.9189 19.0485 12.9512 19.2846C12.9837 19.5207 12.9999 19.7546 12.9999 19.9863C12.9999 20.2176 12.9884 20.4329 12.9653 20.6321C12.942 20.831 12.9026 21.0369 12.847 21.25L25.1666 28.3333C25.611 27.9167 26.1166 27.5903 26.6833 27.3542C27.2496 27.1181 27.8566 27 28.5041 27C29.8533 27 30.9953 27.4699 31.9303 28.4096C32.8656 29.3496 33.3333 30.4908 33.3333 31.8333C33.3333 33.1758 32.8634 34.3171 31.9237 35.2571C30.9837 36.1968 29.8424 36.6667 28.4999 36.6667ZM28.5008 33.8888C29.0835 33.8888 29.5717 33.6917 29.9653 33.2975C30.3587 32.9033 30.5553 32.415 30.5553 31.8325C30.5553 31.2497 30.3583 30.7615 29.9641 30.3679C29.5699 29.9746 29.0816 29.7779 28.4991 29.7779C27.9163 29.7779 27.4281 29.975 27.0345 30.3692C26.6412 30.7633 26.4445 31.2517 26.4445 31.8342C26.4445 32.4169 26.6416 32.9051 27.0358 33.2988C27.4299 33.6921 27.9183 33.8888 28.5008 33.8888ZM8.16742 22.0554C8.7502 22.0554 9.23839 21.8583 9.632 21.4642C10.0253 21.07 10.222 20.5817 10.222 19.9992C10.222 19.4164 10.0249 18.9282 9.63075 18.5346C9.23659 18.1413 8.74825 17.9446 8.16575 17.9446C7.58297 17.9446 7.09478 18.1417 6.70117 18.5358C6.30784 18.93 6.11117 19.4183 6.11117 20.0008C6.11117 20.5836 6.30825 21.0718 6.70242 21.4654C7.09659 21.8588 7.58492 22.0554 8.16742 22.0554ZM28.5008 10.2221C29.0835 10.2221 29.5717 10.025 29.9653 9.63083C30.3587 9.23667 30.5553 8.74833 30.5553 8.16583C30.5553 7.58305 30.3583 7.09486 29.9641 6.70125C29.5699 6.30792 29.0816 6.11125 28.4991 6.11125C27.9163 6.11125 27.4281 6.30833 27.0345 6.7025C26.6412 7.09667 26.4445 7.585 26.4445 8.1675C26.4445 8.75028 26.6416 9.23847 27.0358 9.63208C27.4299 10.0254 27.9183 10.2221 28.5008 10.2221Z" fill="#E0E0E0"/>
</svg>
