<svg width="40" height="40" viewBox="0 0 40 40" fill="none" xmlns="http://www.w3.org/2000/svg">
<path d="M11.9584 21.3887L20.9863 30.4167C21.2641 30.6944 21.4006 31.0185 21.3959 31.3887C21.3912 31.7593 21.2499 32.0835 20.9722 32.3612C20.6944 32.6296 20.3704 32.7661 20.0001 32.7708C19.6298 32.7755 19.3058 32.639 19.028 32.3612L7.63883 20.9721C7.49077 20.824 7.38661 20.6712 7.32633 20.5137C7.26633 20.3565 7.23633 20.1853 7.23633 20C7.23633 19.8147 7.26633 19.6435 7.32633 19.4862C7.38661 19.3287 7.49077 19.176 7.63883 19.0279L19.028 7.63874C19.2963 7.3704 19.618 7.23624 19.993 7.23624C20.368 7.23624 20.6944 7.3704 20.9722 7.63874C21.2499 7.91652 21.3888 8.2429 21.3888 8.6179C21.3888 8.9929 21.2499 9.31929 20.9722 9.59707L11.9584 18.6112H31.9447C32.3427 18.6112 32.6737 18.7432 32.9376 19.0071C33.2015 19.271 33.3334 19.6019 33.3334 20C33.3334 20.398 33.2015 20.729 32.9376 20.9929C32.6737 21.2568 32.3427 21.3887 31.9447 21.3887H11.9584Z" fill="#262626"/>
</svg>
