<svg width="27" height="26" viewBox="0 0 27 26" fill="none" xmlns="http://www.w3.org/2000/svg">
<path d="M4.72208 14.1525L13.75 23.1804C14.0278 23.4582 14.1643 23.7822 14.1596 24.1525C14.1549 24.5231 14.0136 24.8472 13.7358 25.125C13.4581 25.3933 13.134 25.5299 12.7638 25.5346C12.3935 25.5393 12.0694 25.4028 11.7917 25.125L0.4025 13.7358C0.254445 13.5878 0.150278 13.435 0.0900002 13.2775C0.0300002 13.1203 0 12.949 0 12.7638C0 12.5785 0.0300002 12.4072 0.0900002 12.25C0.150278 12.0925 0.254445 11.9397 0.4025 11.7917L11.7917 0.402501C12.06 0.134168 12.3817 0 12.7567 0C13.1317 0 13.4581 0.134168 13.7358 0.402501C14.0136 0.680279 14.1525 1.00667 14.1525 1.38167C14.1525 1.75667 14.0136 2.08306 13.7358 2.36083L4.72208 11.375H24.7083C25.1064 11.375 25.4374 11.5069 25.7013 11.7708C25.9651 12.0347 26.0971 12.3657 26.0971 12.7638C26.0971 13.1618 25.9651 13.4928 25.7013 13.7567C25.4374 14.0206 25.1064 14.1525 24.7083 14.1525H4.72208Z" fill="#262626"/>
</svg>
