<svg width="40" height="40" viewBox="0 0 40 40" fill="none" xmlns="http://www.w3.org/2000/svg">
<path d="M11.9583 21.3887L20.9863 30.4167C21.264 30.6944 21.4006 31.0185 21.3958 31.3888C21.3911 31.7593 21.2499 32.0835 20.9721 32.3612C20.6943 32.6296 20.3703 32.7661 20 32.7708C19.6297 32.7756 19.3057 32.639 19.0279 32.3612L7.63875 20.9721C7.4907 20.824 7.38653 20.6712 7.32625 20.5137C7.26625 20.3565 7.23625 20.1853 7.23625 20C7.23625 19.8147 7.26625 19.6435 7.32625 19.4862C7.38653 19.3287 7.4907 19.176 7.63875 19.0279L19.0279 7.63875C19.2963 7.37042 19.6179 7.23625 19.9929 7.23625C20.3679 7.23625 20.6943 7.37042 20.9721 7.63875C21.2499 7.91653 21.3888 8.24292 21.3888 8.61792C21.3888 8.99292 21.2499 9.31931 20.9721 9.59708L11.9583 18.6112H31.9446C32.3426 18.6112 32.6736 18.7432 32.9375 19.0071C33.2014 19.271 33.3333 19.6019 33.3333 20C33.3333 20.3981 33.2014 20.729 32.9375 20.9929C32.6736 21.2568 32.3426 21.3887 31.9446 21.3887H11.9583Z" fill="#E0E0E0"/>
</svg>
