<svg width="20" height="20" viewBox="0 0 20 20" fill="none" xmlns="http://www.w3.org/2000/svg">
<path d="M3.53475 15.2985C2.92364 14.5301 2.45947 13.6933 2.14225 12.7881C1.82517 11.8831 1.66663 10.9538 1.66663 10C1.66663 9.03708 1.82517 8.10306 2.14225 7.19792C2.45947 6.29278 2.92364 5.45597 3.53475 4.6875C4.36808 5.32181 5.0185 6.10535 5.486 7.03813C5.95364 7.97104 6.18746 8.95833 6.18746 10C6.18746 11.0324 5.95364 12.015 5.486 12.9479C5.0185 13.8808 4.36808 14.6644 3.53475 15.2985ZM9.99996 18.3333C8.99996 18.3333 8.02892 18.1644 7.08684 17.8265C6.14461 17.4884 5.2985 16.9815 4.5485 16.3056C5.50683 15.5231 6.25225 14.5844 6.78475 13.4896C7.31711 12.3947 7.58329 11.2315 7.58329 10C7.58329 8.76847 7.31711 7.60299 6.78475 6.50354C6.25225 5.40396 5.50683 4.46757 4.5485 3.69438C5.2985 3.01854 6.14461 2.5116 7.08684 2.17354C8.02892 1.83562 8.99996 1.66667 9.99996 1.66667C11 1.66667 11.971 1.83562 12.9131 2.17354C13.8553 2.5116 14.7014 3.01854 15.4514 3.69438C14.4931 4.46757 13.7477 5.40396 13.2152 6.50354C12.6828 7.60299 12.4166 8.76847 12.4166 10C12.4166 11.2315 12.6828 12.3947 13.2152 13.4896C13.7477 14.5844 14.4931 15.5231 15.4514 16.3056C14.7014 16.9815 13.8553 17.4884 12.9131 17.8265C11.971 18.1644 11 18.3333 9.99996 18.3333ZM16.4652 15.2985C15.6318 14.6644 14.9837 13.8808 14.5208 12.9479C14.0579 12.015 13.8264 11.0324 13.8264 10C13.8264 8.95833 14.0579 7.97104 14.5208 7.03813C14.9837 6.10535 15.6318 5.32181 16.4652 4.6875C17.0763 5.45597 17.5404 6.29278 17.8577 7.19792C18.1748 8.10306 18.3333 9.03708 18.3333 10C18.3333 10.9538 18.1748 11.8831 17.8577 12.7881C17.5404 13.6933 17.0763 14.5301 16.4652 15.2985Z" fill="#262626"/>
</svg>
