<svg width="20" height="20" viewBox="0 0 20 20" fill="none" xmlns="http://www.w3.org/2000/svg">
<path d="M1.69434 9.29854C1.736 8.62729 1.89114 7.91785 2.15975 7.17021C2.42822 6.42243 2.77079 5.75688 3.18746 5.17354C3.93288 5.84021 4.48031 6.52424 4.82975 7.22563C5.17934 7.92701 5.40274 8.61799 5.49996 9.29854H1.69434ZM14.5 9.29854C14.5972 8.61799 14.8194 7.92819 15.1666 7.22917C15.5139 6.53014 16.0625 5.84729 16.8125 5.18062C17.2291 5.75924 17.5717 6.42354 17.8402 7.17354C18.1088 7.92354 18.2639 8.63188 18.3056 9.29854H14.5ZM3.18746 14.8056C2.77079 14.2269 2.42822 13.566 2.15975 12.8229C1.89114 12.0799 1.736 11.3727 1.69434 10.7015H5.49996C5.40274 11.382 5.17934 12.0695 4.82975 12.764C4.48031 13.4584 3.93288 14.139 3.18746 14.8056ZM16.8125 14.8056C16.0625 14.139 15.5139 13.4584 15.1666 12.764C14.8194 12.0695 14.5972 11.382 14.5 10.7015H18.3056C18.2639 11.3681 18.1088 12.0741 17.8402 12.8194C17.5717 13.5648 17.2291 14.2269 16.8125 14.8056ZM6.90975 9.29854C6.79864 8.40049 6.53704 7.53014 6.12496 6.6875C5.71288 5.84486 5.03461 4.98604 4.09017 4.11104C4.71059 3.49993 5.45482 2.96986 6.32288 2.52083C7.19093 2.07181 8.18281 1.79632 9.2985 1.69438V9.29854H6.90975ZM10.7014 9.29854V1.69438C11.8171 1.79632 12.8113 2.07181 13.6839 2.52083C14.5567 2.96986 15.3032 3.49993 15.9235 4.11104C14.9745 4.98146 14.2928 5.8391 13.8785 6.68396C13.4641 7.52896 13.2013 8.40049 13.0902 9.29854H10.7014ZM9.2985 18.3056C8.13184 18.2037 7.12725 17.9247 6.28475 17.4688C5.44211 17.0128 4.71059 16.4792 4.09017 15.8681C5.03934 14.9977 5.71878 14.1435 6.1285 13.3056C6.53823 12.4676 6.79864 11.5995 6.90975 10.7015H9.2985V18.3056ZM10.7014 18.3056V10.7015H13.0902C13.2013 11.5995 13.4641 12.4687 13.8785 13.309C14.2928 14.1492 14.9745 15.0046 15.9235 15.875C15.3032 16.4861 14.5683 17.0185 13.7187 17.4723C12.8691 17.9259 11.8634 18.2037 10.7014 18.3056Z" fill="#262626"/>
</svg>
