<svg width="40" height="40" viewBox="0 0 40 40" fill="none" xmlns="http://www.w3.org/2000/svg">
<path d="M15.2779 33.6112V31.3888H11.3887C10.9954 31.3888 10.6656 31.2553 10.3992 30.9883C10.1331 30.7211 10 30.39 10 29.995C10 29.6003 10.1331 29.271 10.3992 29.0071C10.6656 28.7432 10.9954 28.6113 11.3887 28.6113H13.6113V11.3888H11.3887C10.9954 11.3888 10.6656 11.2553 10.3992 10.9883C10.1331 10.7211 10 10.39 10 9.995C10 9.60028 10.1331 9.27097 10.3992 9.00708C10.6656 8.74319 10.9954 8.61125 11.3887 8.61125H15.2779V6.38875C15.2779 5.99542 15.4114 5.66556 15.6783 5.39917C15.9456 5.13306 16.2767 5 16.6717 5C17.0664 5 17.3957 5.13306 17.6596 5.39917C17.9235 5.66556 18.0554 5.99542 18.0554 6.38875V8.61125H22.2221V6.38875C22.2221 5.99542 22.3557 5.66556 22.6229 5.39917C22.8901 5.13306 23.2211 5 23.6158 5C24.0108 5 24.3403 5.13306 24.6042 5.39917C24.8681 5.66556 25 5.99542 25 6.38875V8.76375C26.4814 9.09708 27.6851 9.84944 28.6112 11.0208C29.5371 12.1922 30 13.5186 30 15C30 15.7869 29.8518 16.5578 29.5554 17.3125C29.2593 18.0672 28.8335 18.7454 28.2779 19.3471C29.324 19.9121 30.1504 20.6992 30.7571 21.7083C31.3635 22.7175 31.6667 23.811 31.6667 24.9888C31.6667 26.7554 31.0463 28.2638 29.8054 29.5138C28.5649 30.7638 27.0557 31.3888 25.2779 31.3888H25V33.6112C25 34.0046 24.8664 34.3344 24.5992 34.6008C24.3322 34.8669 24.0013 35 23.6062 35C23.2113 35 22.8818 34.8669 22.6179 34.6008C22.354 34.3344 22.2221 34.0046 22.2221 33.6112V31.3888H18.0554V33.6112C18.0554 34.0046 17.9219 34.3344 17.655 34.6008C17.3878 34.8669 17.0567 35 16.6617 35C16.2669 35 15.9376 34.8669 15.6738 34.6008C15.4099 34.3344 15.2779 34.0046 15.2779 33.6112ZM16.3887 18.6112H23.6112C24.6204 18.6112 25.4746 18.2576 26.1737 17.5504C26.8726 16.8432 27.2221 15.9931 27.2221 15C27.2221 13.9908 26.8726 13.1367 26.1737 12.4375C25.4746 11.7383 24.6204 11.3888 23.6112 11.3888H16.3887V18.6112ZM16.3887 28.6113H25.2779C26.2871 28.6113 27.1413 28.2576 27.8404 27.5504C28.5393 26.8432 28.8888 25.9931 28.8888 25C28.8888 23.9908 28.5393 23.1367 27.8404 22.4375C27.1413 21.7383 26.2871 21.3888 25.2779 21.3888H16.3887V28.6113Z" fill="#262626"/>
</svg>
