<svg width="40" height="40" viewBox="0 0 40 40" fill="none" xmlns="http://www.w3.org/2000/svg">
<path d="M36.6666 9.44458V30.5554C36.6666 31.3054 36.3912 31.956 35.8403 32.5071C35.2892 33.0579 34.6387 33.3333 33.8887 33.3333H6.11117C5.36117 33.3333 4.71061 33.0579 4.1595 32.5071C3.60867 31.956 3.33325 31.3054 3.33325 30.5554V9.44458C3.33325 8.69458 3.60867 8.04403 4.1595 7.49291C4.71061 6.94208 5.36117 6.66666 6.11117 6.66666H33.8887C34.6387 6.66666 35.2892 6.94208 35.8403 7.49291C36.3912 8.04403 36.6666 8.69458 36.6666 9.44458ZM6.11117 13.5833H33.8887V9.44458H6.11117V13.5833ZM6.11117 19.3887V30.5554H33.8887V19.3887H6.11117Z" fill="#262626"/>
</svg>
