<svg width="40" height="40" viewBox="0 0 40 40" fill="none" xmlns="http://www.w3.org/2000/svg">
<path d="M7.77792 35C7.02792 35 6.37736 34.7246 5.82625 34.1738C5.27542 33.6226 5 32.9721 5 32.2221V7.77792C5 7.02792 5.27542 6.37737 5.82625 5.82626C6.37736 5.27543 7.02792 5.00001 7.77792 5.00001H20.6529C21.1157 5.00001 21.4629 5.14417 21.6946 5.43251C21.926 5.72084 22.0417 6.03793 22.0417 6.38376C22.0417 6.72987 21.9219 7.04876 21.6825 7.34042C21.4431 7.63209 21.0951 7.77792 20.6388 7.77792H7.77792V32.2221H32.2221V19.2638C32.2221 18.801 32.3663 18.4538 32.6546 18.2221C32.9429 17.9907 33.2601 17.875 33.6063 17.875C33.9521 17.875 34.2708 17.9907 34.5625 18.2221C34.8542 18.4538 35 18.801 35 19.2638V32.2221C35 32.9721 34.7246 33.6226 34.1738 34.1738C33.6226 34.7246 32.9721 35 32.2221 35H7.77792ZM15 23.6113V19.0696C15 18.691 15.074 18.3301 15.2221 17.9871C15.3704 17.6438 15.5696 17.3471 15.8196 17.0971L30.7083 2.20834C30.9861 1.93056 31.2963 1.72681 31.6388 1.59709C31.9815 1.46765 32.3242 1.40292 32.6667 1.40292C33.0186 1.40292 33.3664 1.47237 33.71 1.61126C34.0539 1.75015 34.3682 1.95848 34.6529 2.23626L37.7363 5.36126C37.9974 5.6382 38.1992 5.94404 38.3417 6.27876C38.4842 6.61348 38.5554 6.9539 38.5554 7.30001C38.5554 7.6464 38.4883 7.9932 38.3542 8.34042C38.22 8.68765 38.014 9.00015 37.7363 9.27792L22.9029 24.1667C22.6529 24.4167 22.3563 24.6181 22.0129 24.7708C21.6699 24.9236 21.309 25 20.9304 25H16.3888C15.9954 25 15.6656 24.867 15.3992 24.6008C15.1331 24.3345 15 24.0046 15 23.6113ZM17.7779 22.2221H20.9167L31.1667 11.9721L29.5833 10.4167L27.9863 8.86126L17.7779 19.0417V22.2221Z" fill="#262626"/>
</svg>
