<svg width="53" height="24" viewBox="0 0 53 24" fill="none" xmlns="http://www.w3.org/2000/svg">
<rect width="53" height="24" rx="12" fill="#C1C1C1"/>
<path d="M27.3333 13.9306C26.0601 13.9306 25.0856 14.0163 24.4098 14.1875C23.7338 14.3588 23.169 14.6713 22.7152 15.125L19.6458 18.1944C19.5115 18.3287 19.3506 18.3935 19.1631 18.389C18.9756 18.3842 18.8124 18.3148 18.6735 18.1806C18.5347 18.0417 18.4652 17.8762 18.4652 17.684C18.4652 17.4919 18.5347 17.3264 18.6735 17.1875L21.7223 14.139C22.1713 13.6898 22.4873 13.1284 22.6702 12.4548C22.853 11.7812 22.9444 10.8101 22.9444 9.54167C22.9444 8.74542 23.1203 7.96299 23.4723 7.19438C23.8241 6.4259 24.3472 5.69444 25.0417 5C26.2778 3.76389 27.6366 3.0625 29.1181 2.89583C30.5995 2.72917 31.8194 3.12965 32.7777 4.09729C33.7408 5.06021 34.139 6.28701 33.9723 7.77771C33.8056 9.26854 33.1065 10.6297 31.875 11.861C31.1806 12.5555 30.4491 13.074 29.6806 13.4167C28.912 13.7593 28.1296 13.9306 27.3333 13.9306ZM25.0973 11.75C25.7685 12.4167 26.6783 12.6644 27.8265 12.4931C28.9745 12.3217 30.0046 11.7801 30.9167 10.8681C31.8333 9.95146 32.3808 8.92715 32.559 7.79521C32.7373 6.66326 32.4908 5.76625 31.8194 5.10417C31.1435 4.42819 30.2397 4.1759 29.1077 4.34729C27.9758 4.51854 26.9491 5.0625 26.0277 5.97917C25.1158 6.89125 24.566 7.91326 24.3785 9.04521C24.191 10.1772 24.4306 11.0788 25.0973 11.75ZM31.7223 21.1667C30.8612 21.1667 30.1274 20.8634 29.5208 20.2569C28.9143 19.6505 28.611 18.9167 28.611 18.0556C28.611 17.1945 28.9143 16.4607 29.5208 15.8542C30.1274 15.2476 30.8612 14.9444 31.7223 14.9444C32.5834 14.9444 33.3172 15.2476 33.9235 15.8542C34.5301 16.4607 34.8333 17.1945 34.8333 18.0556C34.8333 18.9167 34.5301 19.6505 33.9235 20.2569C33.3172 20.8634 32.5834 21.1667 31.7223 21.1667Z" fill="#141414"/>
</svg>
