<svg width="53" height="24" viewBox="0 0 53 24" fill="none" xmlns="http://www.w3.org/2000/svg">
<rect width="53" height="24" rx="12" fill="#C1C1C1"/>
<path d="M22.1806 8.65271L19.7083 11.125C19.574 11.2593 19.4131 11.3276 19.2256 11.3298C19.0381 11.3322 18.8749 11.2639 18.736 11.125C18.611 11 18.5451 10.8415 18.5381 10.6494C18.5312 10.4572 18.5902 10.2916 18.7152 10.1527L19.4167 9.43063L18.736 8.75C18.5972 8.61111 18.5277 8.4491 18.5277 8.26396C18.5277 8.07868 18.5972 7.9166 18.736 7.77771L20.014 6.5L19.5208 6C19.3865 5.8657 19.3194 5.70479 19.3194 5.51729C19.3194 5.32979 19.3888 5.1666 19.5277 5.02771C19.6527 4.90271 19.8113 4.83674 20.0035 4.82979C20.1956 4.82285 20.3611 4.88188 20.5 5.00688L21.014 5.5L22.2777 4.23604C22.4166 4.09715 22.5787 4.02771 22.764 4.02771C22.9491 4.02771 23.1111 4.09715 23.25 4.23604L23.9306 4.91667L24.6527 4.21521C24.787 4.09021 24.9479 4.02771 25.1354 4.02771C25.3229 4.02771 25.4861 4.09715 25.625 4.23604C25.7593 4.37035 25.8265 4.53243 25.8265 4.72229C25.8265 4.91201 25.7593 5.07403 25.625 5.20833L23.1527 7.68063L30.8194 15.3473L33.2917 12.875C33.426 12.7407 33.5869 12.6724 33.7744 12.6702C33.9619 12.6678 34.1251 12.7361 34.264 12.875C34.389 13 34.4549 13.1585 34.4619 13.3506C34.4688 13.5428 34.4098 13.7084 34.2848 13.8473L33.5833 14.5694L34.264 15.25C34.4028 15.3889 34.4723 15.5509 34.4723 15.736C34.4723 15.9213 34.4028 16.0834 34.264 16.2223L32.9723 17.514L33.4652 18.014C33.5995 18.1481 33.6667 18.309 33.6667 18.4965C33.6667 18.684 33.5972 18.8472 33.4583 18.986C33.324 19.1203 33.1631 19.1887 32.9756 19.191C32.7881 19.1933 32.6249 19.1273 32.486 18.9931L31.986 18.5L30.7223 19.764C30.5834 19.9028 30.4213 19.9723 30.236 19.9723C30.0509 19.9723 29.8889 19.9028 29.75 19.764L29.0694 19.0833L28.3473 19.7848C28.213 19.9098 28.0521 19.9723 27.8646 19.9723C27.6771 19.9723 27.5139 19.9028 27.375 19.764C27.2407 19.6297 27.1735 19.4676 27.1735 19.2777C27.1735 19.088 27.2407 18.926 27.375 18.7917L29.8473 16.3194L22.1806 8.65271Z" fill="#141414"/>
</svg>
