<svg width="53" height="24" viewBox="0 0 53 24" fill="none" xmlns="http://www.w3.org/2000/svg">
<rect width="53" height="24" rx="12" fill="#269088"/>
<path d="M13.208 16.5C13.016 16.5 12.86 16.444 12.74 16.332C12.628 16.212 12.572 16.064 12.572 15.888V8.7H13.856V15.888C13.856 16.064 13.792 16.212 13.664 16.332C13.544 16.444 13.392 16.5 13.208 16.5ZM10.484 9.252C10.316 9.252 10.172 9.2 10.052 9.096C9.932 8.984 9.872 8.84 9.872 8.664C9.872 8.496 9.932 8.36 10.052 8.256C10.172 8.152 10.316 8.1 10.484 8.1H15.944C16.112 8.1 16.252 8.156 16.364 8.268C16.484 8.372 16.544 8.508 16.544 8.676C16.544 8.852 16.484 8.992 16.364 9.096C16.252 9.2 16.112 9.252 15.944 9.252H10.484ZM22.3763 13.344C22.3763 13.984 22.2363 14.552 21.9563 15.048C21.6763 15.536 21.2963 15.92 20.8163 16.2C20.3363 16.48 19.7963 16.62 19.1963 16.62C18.5963 16.62 18.0563 16.48 17.5763 16.2C17.0963 15.92 16.7123 15.536 16.4243 15.048C16.1443 14.552 16.0043 13.984 16.0043 13.344C16.0043 12.696 16.1443 12.128 16.4243 11.64C16.7123 11.144 17.0963 10.756 17.5763 10.476C18.0563 10.188 18.5963 10.044 19.1963 10.044C19.7963 10.044 20.3363 10.188 20.8163 10.476C21.2963 10.756 21.6763 11.144 21.9563 11.64C22.2363 12.128 22.3763 12.696 22.3763 13.344ZM21.1763 13.344C21.1763 12.904 21.0883 12.524 20.9123 12.204C20.7363 11.876 20.4963 11.62 20.1923 11.436C19.8963 11.244 19.5643 11.148 19.1963 11.148C18.8283 11.148 18.4923 11.244 18.1883 11.436C17.8843 11.62 17.6443 11.876 17.4683 12.204C17.2923 12.524 17.2043 12.904 17.2043 13.344C17.2043 13.768 17.2923 14.144 17.4683 14.472C17.6443 14.8 17.8843 15.056 18.1883 15.24C18.4923 15.424 18.8283 15.516 19.1963 15.516C19.5643 15.516 19.8963 15.424 20.1923 15.24C20.4963 15.056 20.7363 14.8 20.9123 14.472C21.0883 14.144 21.1763 13.768 21.1763 13.344ZM28.9065 7.62C29.0825 7.62 29.2265 7.676 29.3385 7.788C29.4505 7.9 29.5065 8.048 29.5065 8.232V15.888C29.5065 16.064 29.4505 16.212 29.3385 16.332C29.2265 16.444 29.0825 16.5 28.9065 16.5C28.7385 16.5 28.5945 16.444 28.4745 16.332C28.3625 16.212 28.3065 16.064 28.3065 15.888V15.024L28.5585 15.036C28.5585 15.18 28.4985 15.344 28.3785 15.528C28.2665 15.704 28.1105 15.876 27.9105 16.044C27.7105 16.212 27.4745 16.352 27.2025 16.464C26.9305 16.568 26.6385 16.62 26.3265 16.62C25.7745 16.62 25.2785 16.48 24.8385 16.2C24.3985 15.912 24.0505 15.524 23.7945 15.036C23.5385 14.54 23.4105 13.972 23.4105 13.332C23.4105 12.692 23.5385 12.128 23.7945 11.64C24.0505 11.144 24.3945 10.756 24.8265 10.476C25.2665 10.188 25.7545 10.044 26.2905 10.044C26.6265 10.044 26.9385 10.1 27.2265 10.212C27.5225 10.324 27.7785 10.468 27.9945 10.644C28.2105 10.82 28.3785 11.008 28.4985 11.208C28.6185 11.4 28.6785 11.584 28.6785 11.76L28.3065 11.796V8.232C28.3065 8.056 28.3625 7.912 28.4745 7.8C28.5945 7.68 28.7385 7.62 28.9065 7.62ZM26.4585 15.516C26.8425 15.516 27.1745 15.42 27.4545 15.228C27.7425 15.036 27.9665 14.776 28.1265 14.448C28.2865 14.12 28.3665 13.748 28.3665 13.332C28.3665 12.916 28.2865 12.544 28.1265 12.216C27.9665 11.888 27.7425 11.628 27.4545 11.436C27.1665 11.244 26.8345 11.148 26.4585 11.148C26.0905 11.148 25.7625 11.244 25.4745 11.436C25.1945 11.628 24.9705 11.888 24.8025 12.216C24.6425 12.544 24.5625 12.916 24.5625 13.332C24.5625 13.748 24.6425 14.12 24.8025 14.448C24.9705 14.776 25.1945 15.036 25.4745 15.228C25.7625 15.42 26.0905 15.516 26.4585 15.516ZM37.2357 13.344C37.2357 13.984 37.0957 14.552 36.8157 15.048C36.5357 15.536 36.1557 15.92 35.6757 16.2C35.1957 16.48 34.6557 16.62 34.0557 16.62C33.4557 16.62 32.9157 16.48 32.4357 16.2C31.9557 15.92 31.5717 15.536 31.2837 15.048C31.0037 14.552 30.8637 13.984 30.8637 13.344C30.8637 12.696 31.0037 12.128 31.2837 11.64C31.5717 11.144 31.9557 10.756 32.4357 10.476C32.9157 10.188 33.4557 10.044 34.0557 10.044C34.6557 10.044 35.1957 10.188 35.6757 10.476C36.1557 10.756 36.5357 11.144 36.8157 11.64C37.0957 12.128 37.2357 12.696 37.2357 13.344ZM36.0357 13.344C36.0357 12.904 35.9477 12.524 35.7717 12.204C35.5957 11.876 35.3557 11.62 35.0517 11.436C34.7557 11.244 34.4237 11.148 34.0557 11.148C33.6877 11.148 33.3517 11.244 33.0477 11.436C32.7437 11.62 32.5037 11.876 32.3277 12.204C32.1517 12.524 32.0637 12.904 32.0637 13.344C32.0637 13.768 32.1517 14.144 32.3277 14.472C32.5037 14.8 32.7437 15.056 33.0477 15.24C33.3517 15.424 33.6877 15.516 34.0557 15.516C34.4237 15.516 34.7557 15.424 35.0517 15.24C35.3557 15.056 35.5957 14.8 35.7717 14.472C35.9477 14.144 36.0357 13.768 36.0357 13.344ZM38.2219 15.516C38.1499 15.404 38.1179 15.276 38.1259 15.132C38.1339 14.98 38.2179 14.852 38.3779 14.748C38.4899 14.676 38.6059 14.648 38.7259 14.664C38.8539 14.672 38.9739 14.732 39.0859 14.844C39.3099 15.092 39.5579 15.288 39.8299 15.432C40.1099 15.576 40.4459 15.648 40.8379 15.648C40.9979 15.64 41.1619 15.616 41.3299 15.576C41.4979 15.528 41.6419 15.448 41.7619 15.336C41.8819 15.216 41.9419 15.044 41.9419 14.82C41.9419 14.62 41.8779 14.46 41.7499 14.34C41.6219 14.22 41.4539 14.124 41.2459 14.052C41.0379 13.972 40.8139 13.9 40.5739 13.836C40.3179 13.764 40.0579 13.684 39.7939 13.596C39.5379 13.508 39.3059 13.396 39.0979 13.26C38.8899 13.116 38.7179 12.932 38.5819 12.708C38.4539 12.484 38.3899 12.208 38.3899 11.88C38.3899 11.504 38.4939 11.18 38.7019 10.908C38.9179 10.636 39.1939 10.424 39.5299 10.272C39.8739 10.12 40.2459 10.044 40.6459 10.044C40.8779 10.044 41.1219 10.076 41.3779 10.14C41.6339 10.196 41.8819 10.288 42.1219 10.416C42.3619 10.544 42.5699 10.712 42.7459 10.92C42.8259 11.024 42.8699 11.148 42.8779 11.292C42.8939 11.436 42.8299 11.564 42.6859 11.676C42.5899 11.756 42.4739 11.792 42.3379 11.784C42.2019 11.776 42.0899 11.732 42.0019 11.652C41.8499 11.46 41.6539 11.312 41.4139 11.208C41.1739 11.096 40.9019 11.04 40.5979 11.04C40.4459 11.04 40.2859 11.064 40.1179 11.112C39.9579 11.152 39.8219 11.228 39.7099 11.34C39.5979 11.452 39.5419 11.616 39.5419 11.832C39.5419 12.032 39.6059 12.192 39.7339 12.312C39.8699 12.432 40.0459 12.532 40.2619 12.612C40.4779 12.692 40.7139 12.764 40.9699 12.828C41.2179 12.892 41.4619 12.968 41.7019 13.056C41.9499 13.144 42.1699 13.26 42.3619 13.404C42.5619 13.54 42.7219 13.72 42.8419 13.944C42.9699 14.16 43.0339 14.436 43.0339 14.772C43.0339 15.164 42.9179 15.5 42.6859 15.78C42.4619 16.052 42.1739 16.26 41.8219 16.404C41.4779 16.548 41.1139 16.62 40.7299 16.62C40.2739 16.62 39.8179 16.54 39.3619 16.38C38.9139 16.212 38.5339 15.924 38.2219 15.516Z" fill="white"/>
</svg>
