<svg width="53" height="24" viewBox="0 0 53 24" fill="none" xmlns="http://www.w3.org/2000/svg">
<rect width="53" height="24" rx="12" fill="#C1C1C1"/>
<path d="M18.1943 11.2985C18.236 10.6273 18.3911 9.91785 18.6598 9.17021C18.9282 8.42244 19.2708 7.75688 19.6875 7.17355C20.4329 7.84022 20.9803 8.52424 21.3298 9.22563C21.6793 9.92702 21.9027 10.618 22 11.2985H18.1943ZM31 11.2985C31.0972 10.618 31.3194 9.9282 31.6666 9.22917C32.0139 8.53015 32.5625 7.8473 33.3125 7.18063C33.7291 7.75924 34.0717 8.42355 34.3402 9.17355C34.6088 9.92355 34.7639 10.6319 34.8056 11.2985H31ZM19.6875 16.8056C19.2708 16.2269 18.9282 15.566 18.6598 14.8229C18.3911 14.0799 18.236 13.3727 18.1943 12.7015H22C21.9027 13.382 21.6793 14.0695 21.3298 14.764C20.9803 15.4584 20.4329 16.139 19.6875 16.8056ZM33.3125 16.8056C32.5625 16.139 32.0139 15.4584 31.6666 14.764C31.3194 14.0695 31.0972 13.382 31 12.7015H34.8056C34.7639 13.3681 34.6088 14.0741 34.3402 14.8194C34.0717 15.5648 33.7291 16.2269 33.3125 16.8056ZM23.4098 11.2985C23.2986 10.4005 23.037 9.53015 22.625 8.68751C22.2129 7.84487 21.5346 6.98605 20.5902 6.11105C21.2106 5.49994 21.9548 4.96987 22.8229 4.52084C23.6909 4.07181 24.6828 3.79633 25.7985 3.69438V11.2985H23.4098ZM27.2014 11.2985V3.69438C28.3171 3.79633 29.3113 4.07181 30.1839 4.52084C31.0567 4.96987 31.8032 5.49994 32.4235 6.11105C31.4745 6.98147 30.7928 7.8391 30.3785 8.68397C29.9641 9.52897 29.7013 10.4005 29.5902 11.2985H27.2014ZM25.7985 20.3056C24.6318 20.2037 23.6273 19.9247 22.7848 19.4688C21.9421 19.0128 21.2106 18.4792 20.5902 17.8681C21.5393 16.9977 22.2188 16.1435 22.6285 15.3056C23.0382 14.4676 23.2986 13.5995 23.4098 12.7015H25.7985V20.3056ZM27.2014 20.3056V12.7015H29.5902C29.7013 13.5995 29.9641 14.4687 30.3785 15.309C30.7928 16.1492 31.4745 17.0046 32.4235 17.875C31.8032 18.4861 31.0683 19.0185 30.2187 19.4723C29.3691 19.9259 28.3634 20.2037 27.2014 20.3056Z" fill="#141414"/>
</svg>
