<svg width="53" height="24" viewBox="0 0 53 24" fill="none" xmlns="http://www.w3.org/2000/svg">
<rect width="53" height="24" rx="12" fill="#C1C1C1"/>
<path d="M26.5 20.3333C25.3565 20.3333 24.2778 20.1146 23.2639 19.6771C22.25 19.2396 21.3657 18.6435 20.611 17.889C19.8564 17.1342 19.2604 16.2499 18.8229 15.236C18.3854 14.2222 18.1666 13.1435 18.1666 12C18.1666 10.8472 18.3854 9.76619 18.8229 8.75688C19.2604 7.74771 19.8564 6.86577 20.611 6.11105C21.3657 5.35646 22.25 4.76042 23.2639 4.32292C24.2778 3.88542 25.3565 3.66667 26.5 3.66667C27.6527 3.66667 28.7338 3.88542 29.7431 4.32292C30.7523 4.76042 31.6342 5.35646 32.3889 6.11105C33.1435 6.86577 33.7395 7.74771 34.177 8.75688C34.6145 9.76619 34.8333 10.8472 34.8333 12C34.8333 13.1435 34.6145 14.2222 34.177 15.236C33.7395 16.2499 33.1435 17.1342 32.3889 17.889C31.6342 18.6435 30.7523 19.2396 29.7431 19.6771C28.7338 20.1146 27.6527 20.3333 26.5 20.3333ZM30.736 10.014L32.0693 9.55563L32.4306 8.29167C31.9675 7.57876 31.4004 6.96882 30.7291 6.46188C30.0579 5.95494 29.3056 5.56952 28.4723 5.30563L27.1943 6.16667V7.52771L30.736 10.014ZM22.2777 10.014L25.8056 7.52771V6.16667L24.5416 5.30563C23.7083 5.56952 22.956 5.95494 22.2848 6.46188C21.6134 6.96882 21.0462 7.57876 20.5833 8.29167L21 9.55563L22.2777 10.014ZM21.236 16.5973L22.3889 16.4723L23.1389 15.1944L21.875 11.3333L20.5 10.861L19.5556 11.611C19.5556 12.5787 19.6713 13.4618 19.9027 14.2604C20.1342 15.059 20.5786 15.838 21.236 16.5973ZM26.5 18.9444C26.8704 18.9444 27.2407 18.912 27.611 18.8473C27.9814 18.7824 28.3611 18.6945 28.75 18.5833L29.4027 17.1667L28.7777 16.0973H24.236L23.611 17.1667L24.2639 18.5833C24.6157 18.6945 24.9838 18.7824 25.3681 18.8473C25.7523 18.912 26.1295 18.9444 26.5 18.9444ZM24.4027 14.7083H28.5416L29.7777 11.0556L26.5 8.7223L23.1943 11.0556L24.4027 14.7083ZM31.7777 16.5973C32.4259 15.838 32.8657 15.059 33.0973 14.2604C33.3286 13.4618 33.4443 12.5787 33.4443 11.611L32.5 10.9583L31.1389 11.3333L29.875 15.1944L30.611 16.4723L31.7777 16.5973Z" fill="#141414"/>
</svg>
