<svg width="53" height="24" viewBox="0 0 53 24" fill="none" xmlns="http://www.w3.org/2000/svg">
<rect width="53" height="24" rx="12" fill="#C1C1C1"/>
<path d="M20.0349 17.2985C19.4238 16.5301 18.9596 15.6933 18.6424 14.7881C18.3253 13.8831 18.1667 12.9538 18.1667 12C18.1667 11.0371 18.3253 10.1031 18.6424 9.19792C18.9596 8.29278 19.4238 7.45598 20.0349 6.68751C20.8682 7.32181 21.5186 8.10535 21.9861 9.03813C22.4538 9.97105 22.6876 10.9583 22.6876 12C22.6876 13.0324 22.4538 14.015 21.9861 14.9479C21.5186 15.8808 20.8682 16.6644 20.0349 17.2985ZM26.5001 20.3333C25.5001 20.3333 24.529 20.1644 23.587 19.8265C22.6447 19.4884 21.7986 18.9815 21.0486 18.3056C22.007 17.5231 22.7524 16.5845 23.2849 15.4896C23.8172 14.3947 24.0834 13.2315 24.0834 12C24.0834 10.7685 23.8172 9.60299 23.2849 8.50355C22.7524 7.40396 22.007 6.46758 21.0486 5.69438C21.7986 5.01855 22.6447 4.5116 23.587 4.17355C24.529 3.83563 25.5001 3.66667 26.5001 3.66667C27.5001 3.66667 28.4711 3.83563 29.4132 4.17355C30.3554 4.5116 31.2015 5.01855 31.9515 5.69438C30.9932 6.46758 30.2478 7.40396 29.7153 8.50355C29.1829 9.60299 28.9167 10.7685 28.9167 12C28.9167 13.2315 29.1829 14.3947 29.7153 15.4896C30.2478 16.5845 30.9932 17.5231 31.9515 18.3056C31.2015 18.9815 30.3554 19.4884 29.4132 19.8265C28.4711 20.1644 27.5001 20.3333 26.5001 20.3333ZM32.9653 17.2985C32.132 16.6644 31.4838 15.8808 31.0209 14.9479C30.558 14.015 30.3265 13.0324 30.3265 12C30.3265 10.9583 30.558 9.97105 31.0209 9.03813C31.4838 8.10535 32.132 7.32181 32.9653 6.68751C33.5764 7.45598 34.0406 8.29278 34.3578 9.19792C34.6749 10.1031 34.8334 11.0371 34.8334 12C34.8334 12.9538 34.6749 13.8831 34.3578 14.7881C34.0406 15.6933 33.5764 16.5301 32.9653 17.2985Z" fill="#141414"/>
</svg>
