<svg width="20" height="20" viewBox="0 0 20 20" fill="none" xmlns="http://www.w3.org/2000/svg">
<path d="M9.99996 18.3333C8.85649 18.3333 7.77781 18.1146 6.76392 17.6771C5.75003 17.2396 4.86572 16.6435 4.111 15.889C3.35642 15.1342 2.76038 14.2499 2.32288 13.236C1.88538 12.2222 1.66663 11.1435 1.66663 10C1.66663 8.84722 1.88538 7.76618 2.32288 6.75688C2.76038 5.74771 3.35642 4.86577 4.111 4.11104C4.86572 3.35646 5.75003 2.76042 6.76392 2.32292C7.77781 1.88542 8.85649 1.66667 9.99996 1.66667C11.1527 1.66667 12.2338 1.88542 13.2431 2.32292C14.2523 2.76042 15.1342 3.35646 15.8889 4.11104C16.6435 4.86577 17.2395 5.74771 17.677 6.75688C18.1145 7.76618 18.3333 8.84722 18.3333 10C18.3333 11.1435 18.1145 12.2222 17.677 13.236C17.2395 14.2499 16.6435 15.1342 15.8889 15.889C15.1342 16.6435 14.2523 17.2396 13.2431 17.6771C12.2338 18.1146 11.1527 18.3333 9.99996 18.3333ZM14.236 8.01396L15.5693 7.55563L15.9306 6.29167C15.4675 5.57875 14.9004 4.96882 14.2291 4.46188C13.5579 3.95493 12.8056 3.56951 11.9723 3.30563L10.6943 4.16667V5.52771L14.236 8.01396ZM5.77767 8.01396L9.30559 5.52771V4.16667L8.04163 3.30563C7.20829 3.56951 6.456 3.95493 5.78475 4.46188C5.11336 4.96882 4.54621 5.57875 4.08329 6.29167L4.49996 7.55563L5.77767 8.01396ZM4.736 14.5973L5.88892 14.4723L6.63892 13.1944L5.37496 9.33334L3.99996 8.86104L3.05558 9.61104C3.05558 10.5787 3.17128 11.4618 3.40267 12.2604C3.6342 13.059 4.07864 13.838 4.736 14.5973ZM9.99996 16.9444C10.3704 16.9444 10.7407 16.912 11.111 16.8473C11.4814 16.7824 11.8611 16.6944 12.25 16.5833L12.9027 15.1667L12.2777 14.0973H7.736L7.111 15.1667L7.76392 16.5833C8.11572 16.6944 8.48378 16.7824 8.86809 16.8473C9.25225 16.912 9.62954 16.9444 9.99996 16.9444ZM7.90267 12.7083H12.0416L13.2777 9.05563L9.99996 6.72229L6.69433 9.05563L7.90267 12.7083ZM15.2777 14.5973C15.9259 13.838 16.3657 13.059 16.5973 12.2604C16.8286 11.4618 16.9443 10.5787 16.9443 9.61104L16 8.95834L14.6389 9.33334L13.375 13.1944L14.111 14.4723L15.2777 14.5973Z" fill="#262626"/>
</svg>
