<svg width="20" height="20" viewBox="0 0 20 20" fill="none" xmlns="http://www.w3.org/2000/svg">
<path d="M5.68063 6.65271L3.20833 9.125C3.07403 9.25931 2.91313 9.32757 2.72563 9.32979C2.53813 9.33215 2.37493 9.26389 2.23604 9.125C2.11104 9 2.04507 8.84146 2.03813 8.64938C2.03118 8.45715 2.09021 8.2916 2.21521 8.15271L2.91667 7.43063L2.23604 6.75C2.09715 6.61111 2.02771 6.4491 2.02771 6.26396C2.02771 6.07868 2.09715 5.9166 2.23604 5.77771L3.51396 4.5L3.02083 4C2.88653 3.8657 2.81938 3.70479 2.81938 3.51729C2.81938 3.32979 2.88882 3.1666 3.02771 3.02771C3.15271 2.90271 3.31132 2.83674 3.50354 2.82979C3.69563 2.82285 3.86111 2.88188 4 3.00688L4.51396 3.5L5.77771 2.23604C5.9166 2.09715 6.07868 2.02771 6.26396 2.02771C6.4491 2.02771 6.61111 2.09715 6.75 2.23604L7.43063 2.91667L8.15271 2.21521C8.28702 2.09021 8.44792 2.02771 8.63542 2.02771C8.82292 2.02771 8.98611 2.09715 9.125 2.23604C9.25931 2.37035 9.32646 2.53243 9.32646 2.72229C9.32646 2.91201 9.25931 3.07403 9.125 3.20833L6.65271 5.68063L14.3194 13.3473L16.7917 10.875C16.926 10.7407 17.0869 10.6724 17.2744 10.6702C17.4619 10.6678 17.6251 10.7361 17.764 10.875C17.889 11 17.9549 11.1585 17.9619 11.3506C17.9688 11.5428 17.9098 11.7084 17.7848 11.8473L17.0833 12.5694L17.764 13.25C17.9028 13.3889 17.9723 13.5509 17.9723 13.736C17.9723 13.9213 17.9028 14.0834 17.764 14.2223L16.4723 15.514L16.9652 16.014C17.0995 16.1481 17.1667 16.309 17.1667 16.4965C17.1667 16.684 17.0972 16.8472 16.9583 16.986C16.824 17.1203 16.6631 17.1887 16.4756 17.191C16.2881 17.1933 16.1249 17.1273 15.986 16.9931L15.486 16.5L14.2223 17.764C14.0834 17.9028 13.9213 17.9723 13.736 17.9723C13.5509 17.9723 13.3889 17.9028 13.25 17.764L12.5694 17.0833L11.8473 17.7848C11.713 17.9098 11.5521 17.9723 11.3646 17.9723C11.1771 17.9723 11.0139 17.9028 10.875 17.764C10.7407 17.6297 10.6735 17.4676 10.6735 17.2777C10.6735 17.088 10.7407 16.926 10.875 16.7917L13.3473 14.3194L5.68063 6.65271Z" fill="#262626"/>
</svg>
