<svg width="40" height="40" viewBox="0 0 40 40" fill="none" xmlns="http://www.w3.org/2000/svg">
<path d="M20 20C20.9166 20 21.7013 19.6736 22.3541 19.0208C23.0069 18.368 23.3333 17.5833 23.3333 16.6667C23.3333 15.75 23.0069 14.9653 22.3541 14.3125C21.7013 13.6597 20.9166 13.3333 20 13.3333C19.0833 13.3333 18.2986 13.6597 17.6458 14.3125C16.993 14.9653 16.6666 15.75 16.6666 16.6667C16.6666 17.5833 16.993 18.368 17.6458 19.0208C18.2986 19.6736 19.0833 20 20 20ZM20 36.6667C15.5277 32.8611 12.1875 29.3264 9.97913 26.0625C7.77079 22.7986 6.66663 19.7778 6.66663 17C6.66663 12.8333 8.0069 9.51388 10.6875 7.04166C13.368 4.56944 16.4722 3.33333 20 3.33333C23.5277 3.33333 26.6319 4.56944 29.3125 7.04166C31.993 9.51388 33.3333 12.8333 33.3333 17C33.3333 19.7778 32.2291 22.7986 30.0208 26.0625C27.8125 29.3264 24.4722 32.8611 20 36.6667Z" fill="#5BCDC4"/>
</svg>
