<svg width="40" height="40" viewBox="0 0 40 40" fill="none" xmlns="http://www.w3.org/2000/svg">
<path d="M6.66671 6.66667L10 13.3333H15L11.6667 6.66667H15L18.3334 13.3333H23.3334L20 6.66667H23.3334L26.6667 13.3333H31.6667L28.3334 6.66667H33.3334C34.25 6.66667 35.0348 6.99306 35.6875 7.64584C36.3403 8.29862 36.6667 9.08334 36.6667 10V30C36.6667 30.9167 36.3403 31.7014 35.6875 32.3542C35.0348 33.0069 34.25 33.3333 33.3334 33.3333H6.66671C5.75004 33.3333 4.96532 33.0069 4.31254 32.3542C3.65976 31.7014 3.33337 30.9167 3.33337 30V10C3.33337 9.08334 3.65976 8.29862 4.31254 7.64584C4.96532 6.99306 5.75004 6.66667 6.66671 6.66667ZM6.66671 16.6667V30H33.3334V16.6667H6.66671Z" fill="#E0E0E0"/>
</svg>
