<svg width="40" height="40" viewBox="0 0 40 40" fill="none" xmlns="http://www.w3.org/2000/svg">
<path d="M22.778 22.2221C21.3891 22.2221 20.2086 21.736 19.2363 20.7637C18.2641 19.7915 17.778 18.611 17.778 17.2221C17.778 15.8332 18.2641 14.6526 19.2363 13.6804C20.2086 12.7082 21.3891 12.2221 22.778 12.2221C24.1669 12.2221 25.3474 12.7082 26.3197 13.6804C27.2919 14.6526 27.778 15.8332 27.778 17.2221C27.778 18.611 27.2919 19.7915 26.3197 20.7637C25.3474 21.736 24.1669 22.2221 22.778 22.2221ZM10.0001 27.7779C9.23619 27.7779 8.5823 27.5058 8.03841 26.9617C7.49425 26.4178 7.22217 25.7639 7.22217 25V9.44458C7.22217 8.68069 7.49425 8.02666 8.03841 7.4825C8.5823 6.93861 9.23619 6.66666 10.0001 6.66666H35.5555C36.3194 6.66666 36.9734 6.93861 37.5176 7.4825C38.0615 8.02666 38.3334 8.68069 38.3334 9.44458V25C38.3334 25.7639 38.0615 26.4178 37.5176 26.9617C36.9734 27.5058 36.3194 27.7779 35.5555 27.7779H10.0001ZM13.8888 25H31.6667C31.6667 23.9167 32.0441 22.9976 32.7988 22.2429C33.5533 21.4885 34.4722 21.1112 35.5555 21.1112V13.3333C34.4722 13.3333 33.5533 12.956 32.7988 12.2012C32.0441 11.4468 31.6667 10.5279 31.6667 9.44458H13.8888C13.8888 10.5279 13.5116 11.4468 12.7572 12.2012C12.0024 12.956 11.0834 13.3333 10.0001 13.3333V21.1112C11.0834 21.1112 12.0024 21.4885 12.7572 22.2429C13.5116 22.9976 13.8888 23.9167 13.8888 25ZM31.9447 33.3333H4.44466C3.68078 33.3333 3.02675 33.0614 2.48258 32.5175C1.93869 31.9733 1.66675 31.3193 1.66675 30.5554V13.0554C1.66675 12.6621 1.80036 12.3322 2.06758 12.0658C2.33453 11.7997 2.6655 11.6667 3.0605 11.6667C3.4555 11.6667 3.78494 11.7997 4.04883 12.0658C4.31272 12.3322 4.44466 12.6621 4.44466 13.0554V30.5554H31.9447C32.338 30.5554 32.6679 30.689 32.9342 30.9562C33.2004 31.2235 33.3334 31.5544 33.3334 31.9492C33.3334 32.3442 33.2004 32.6736 32.9342 32.9375C32.6679 33.2014 32.338 33.3333 31.9447 33.3333Z" fill="#262626"/>
</svg>
