<svg width="40" height="40" viewBox="0 0 40 40" fill="none" xmlns="http://www.w3.org/2000/svg">
<path d="M17.7082 36.6667C17.1991 36.6667 16.7523 36.5 16.3678 36.1667C15.9837 35.8333 15.7545 35.4167 15.6803 34.9167L15.1387 31.3887C14.6664 31.2129 14.1827 30.9815 13.6874 30.6946C13.1921 30.4074 12.7453 30.1064 12.347 29.7917L9.097 31.2637C8.60644 31.4768 8.11575 31.5 7.62491 31.3333C7.13408 31.1667 6.74977 30.8565 6.472 30.4029L4.20825 26.375C3.93047 25.9214 3.85172 25.4446 3.972 24.9446C4.09255 24.4446 4.36116 24.0325 4.77783 23.7083L7.73616 21.5137C7.68977 21.2824 7.662 21.0301 7.65283 20.7571C7.64338 20.4837 7.63866 20.2314 7.63866 20C7.63866 19.7686 7.64338 19.5162 7.65283 19.2429C7.662 18.9699 7.68977 18.7176 7.73616 18.4862L4.77783 16.2917C4.36116 15.9675 4.09255 15.5554 3.972 15.0554C3.85172 14.5554 3.93047 14.0786 4.20825 13.625L6.472 9.59708C6.74977 9.14347 7.13408 8.83333 7.62491 8.66666C8.11575 8.5 8.60644 8.52319 9.097 8.73624L12.347 10.2083C12.7453 9.89361 13.1945 9.59264 13.6945 9.30541C14.1945 9.01847 14.6759 8.79625 15.1387 8.63875L15.6803 5.08333C15.7545 4.58333 15.9837 4.16666 16.3678 3.83333C16.7523 3.49999 17.1991 3.33333 17.7082 3.33333H22.2916C22.8007 3.33333 23.2476 3.49999 23.632 3.83333C24.0162 4.16666 24.2453 4.58333 24.3195 5.08333L24.8612 8.61124C25.3334 8.78708 25.8217 9.01388 26.3262 9.29166C26.8309 9.56944 27.2731 9.875 27.6528 10.2083L30.9028 8.73624C31.3934 8.52319 31.8795 8.5 32.3612 8.66666C32.8426 8.83333 33.2221 9.14347 33.4999 9.59708L35.7916 13.625C36.0694 14.0786 36.1481 14.5601 36.0278 15.0696C35.9073 15.5787 35.6387 15.9861 35.222 16.2917L32.2637 18.4304C32.3101 18.6804 32.3378 18.9421 32.347 19.2154C32.3564 19.4885 32.3612 19.75 32.3612 20C32.3612 20.25 32.3564 20.5069 32.347 20.7708C32.3378 21.0347 32.3055 21.2917 32.2499 21.5417L35.2082 23.7083C35.6249 24.0139 35.8934 24.4212 36.0137 24.9304C36.1342 25.4399 36.0556 25.9214 35.7778 26.375L33.4999 30.4029C33.2221 30.8565 32.8378 31.1667 32.347 31.3333C31.8564 31.5 31.3657 31.4768 30.8749 31.2637L27.6528 29.7917C27.2545 30.1064 26.8101 30.4119 26.3195 30.7083C25.8287 31.0047 25.3426 31.2315 24.8612 31.3887L24.3195 34.9167C24.2453 35.4167 24.0162 35.8333 23.632 36.1667C23.2476 36.5 22.8007 36.6667 22.2916 36.6667H17.7082ZM18.222 33.8888H21.7637L22.347 29.3054C23.2453 29.0832 24.0903 28.7429 24.882 28.2846C25.6737 27.8262 26.3935 27.2731 27.0416 26.625L31.3612 28.4721L33.0137 25.5279L29.2082 22.7083C29.3285 22.2639 29.4212 21.8171 29.4862 21.3679C29.5509 20.919 29.5832 20.4631 29.5832 20C29.5832 19.5369 29.5555 19.081 29.4999 18.6321C29.4444 18.1829 29.3471 17.7361 29.2082 17.2917L33.0137 14.4721L31.3612 11.5279L27.0416 13.3887C26.4119 12.6943 25.7059 12.1133 24.9237 11.6458C24.1412 11.1783 23.2823 10.8612 22.347 10.6946L21.7778 6.11124H18.2362L17.6528 10.6946C16.7362 10.8982 15.882 11.2292 15.0903 11.6875C14.2987 12.1458 13.588 12.7083 12.9582 13.375L8.63866 11.5279L6.98616 14.4721L10.7916 17.2779C10.6713 17.7315 10.5787 18.1806 10.5137 18.625C10.4489 19.0694 10.4166 19.5278 10.4166 20C10.4166 20.4631 10.4489 20.9168 10.5137 21.3612C10.5787 21.8057 10.6713 22.2547 10.7916 22.7083L6.98616 25.5279L8.63866 28.4721L12.9582 26.6112C13.6063 27.2685 14.3262 27.8262 15.1178 28.2846C15.9095 28.7429 16.7545 29.0832 17.6528 29.3054L18.222 33.8888ZM20.0278 25.5554C21.5648 25.5554 22.8749 25.0137 23.9582 23.9304C25.0416 22.8471 25.5832 21.5369 25.5832 20C25.5832 18.4631 25.0416 17.1529 23.9582 16.0696C22.8749 14.9862 21.5648 14.4446 20.0278 14.4446C18.4814 14.4446 17.1689 14.9862 16.0903 16.0696C15.0114 17.1529 14.472 18.4631 14.472 20C14.472 21.5369 15.0114 22.8471 16.0903 23.9304C17.1689 25.0137 18.4814 25.5554 20.0278 25.5554Z" fill="#262626"/>
</svg>
