<svg width="20" height="20" viewBox="0 0 20 20" fill="none" xmlns="http://www.w3.org/2000/svg">
<path d="M10.8333 11.9306C9.56014 11.9306 8.58563 12.0163 7.90979 12.1875C7.23382 12.3588 6.66896 12.6713 6.21521 13.125L3.14584 16.1944C3.01153 16.3287 2.85063 16.3935 2.66313 16.389C2.47563 16.3842 2.31243 16.3148 2.17354 16.1806C2.03465 16.0417 1.96521 15.8762 1.96521 15.684C1.96521 15.4919 2.03465 15.3264 2.17354 15.1875L5.22229 12.139C5.67132 11.6898 5.98729 11.1284 6.17021 10.4548C6.35299 9.78118 6.44438 8.81014 6.44438 7.54167C6.44438 6.74542 6.62035 5.96299 6.97229 5.19438C7.3241 4.4259 7.84722 3.69444 8.54167 3C9.77778 1.76389 11.1366 1.0625 12.6181 0.895834C14.0995 0.729167 15.3194 1.12965 16.2777 2.09729C17.2408 3.06021 17.639 4.28701 17.4723 5.77771C17.3056 7.26854 16.6065 8.62965 15.375 9.86104C14.6806 10.5555 13.9491 11.074 13.1806 11.4167C12.412 11.7593 11.6296 11.9306 10.8333 11.9306ZM8.59729 9.75C9.26854 10.4167 10.1783 10.6644 11.3265 10.4931C12.4745 10.3217 13.5046 9.78007 14.4167 8.86812C15.3333 7.95146 15.8808 6.92715 16.059 5.79521C16.2373 4.66326 15.9908 3.76625 15.3194 3.10417C14.6435 2.42819 13.7397 2.1759 12.6077 2.34729C11.4758 2.51854 10.4491 3.0625 9.52771 3.97917C8.61577 4.89125 8.06604 5.91326 7.87854 7.04521C7.69104 8.17715 7.93063 9.07875 8.59729 9.75ZM15.2223 19.1667C14.3612 19.1667 13.6274 18.8634 13.0208 18.2569C12.4143 17.6505 12.111 16.9167 12.111 16.0556C12.111 15.1945 12.4143 14.4607 13.0208 13.8542C13.6274 13.2476 14.3612 12.9444 15.2223 12.9444C16.0834 12.9444 16.8172 13.2476 17.4235 13.8542C18.0301 14.4607 18.3333 15.1945 18.3333 16.0556C18.3333 16.9167 18.0301 17.6505 17.4235 18.2569C16.8172 18.8634 16.0834 19.1667 15.2223 19.1667Z" fill="#262626"/>
</svg>
