<svg width="40" height="40" viewBox="0 0 40 40" fill="none" xmlns="http://www.w3.org/2000/svg">
<path d="M9.99992 23.3333H29.9999V20.5554H9.99992V23.3333ZM9.99992 18.0554H29.9999V15.2779H9.99992V18.0554ZM9.99992 12.7779H29.9999V10H9.99992V12.7779ZM36.6666 36.6667L29.9999 30H6.11117C5.36117 30 4.71061 29.7246 4.1595 29.1738C3.60867 28.6226 3.33325 27.9721 3.33325 27.2221V6.11125C3.33325 5.36125 3.60867 4.7107 4.1595 4.15959C4.71061 3.60875 5.36117 3.33334 6.11117 3.33334H33.8887C34.6387 3.33334 35.2892 3.60875 35.8403 4.15959C36.3912 4.7107 36.6666 5.36125 36.6666 6.11125V36.6667ZM6.11117 27.2221H31.1945L33.8887 30.0696V6.11125H6.11117V27.2221Z" fill="#262626"/>
</svg>
