<svg width="40" height="40" viewBox="0 0 40 40" fill="none" xmlns="http://www.w3.org/2000/svg">
<path d="M13.8888 29.2083L20 25.5417L26.1113 29.25L24.4863 22.3054L29.8613 17.6387L22.7779 17.0137L20 10.4583L17.2221 16.9721L10.1388 17.5971L15.5138 22.2779L13.8888 29.2083ZM20 28.7917L12.5279 33.2917C12.2779 33.4492 12.0141 33.5186 11.7363 33.5C11.4585 33.4814 11.2131 33.3935 11 33.2362C10.787 33.0787 10.6249 32.8774 10.5138 32.6321C10.4027 32.3865 10.3796 32.111 10.4446 31.8054L12.4167 23.2917L5.81961 17.5554C5.57878 17.3426 5.43294 17.1043 5.38211 16.8404C5.331 16.5765 5.34253 16.3196 5.41669 16.0696C5.49086 15.8196 5.62975 15.6112 5.83336 15.4446C6.03697 15.2779 6.29628 15.176 6.61128 15.1387L15.3334 14.375L18.7084 6.34708C18.8286 6.0693 19.0116 5.86097 19.2571 5.72208C19.5024 5.58319 19.75 5.51375 20 5.51375C20.25 5.51375 20.4977 5.58319 20.7429 5.72208C20.9885 5.86097 21.1714 6.0693 21.2917 6.34708L24.6667 14.375L33.3888 15.1387C33.7038 15.176 33.9631 15.2779 34.1667 15.4446C34.3703 15.6112 34.5092 15.8196 34.5834 16.0696C34.6575 16.3196 34.6691 16.5765 34.6179 16.8404C34.5671 17.1043 34.4213 17.3426 34.1804 17.5554L27.5834 23.2917L29.5554 31.8054C29.6204 32.111 29.5974 32.3865 29.4863 32.6321C29.3752 32.8774 29.2131 33.0787 29 33.2362C28.787 33.3935 28.5416 33.4814 28.2638 33.5C27.986 33.5186 27.7221 33.4492 27.4721 33.2917L20 28.7917Z" fill="#262626"/>
</svg>
