<svg width="40" height="40" viewBox="0 0 40 40" fill="none" xmlns="http://www.w3.org/2000/svg">
<path d="M6.66663 31.6667V16.6667C6.66663 16.1389 6.78468 15.6389 7.02079 15.1667C7.2569 14.6945 7.58329 14.3056 7.99996 14L18 6.50001C18.5833 6.05557 19.25 5.83334 20 5.83334C20.75 5.83334 21.4166 6.05557 22 6.50001L32 14C32.4166 14.3056 32.743 14.6945 32.9791 15.1667C33.2152 15.6389 33.3333 16.1389 33.3333 16.6667V31.6667C33.3333 32.5833 33.0069 33.3681 32.3541 34.0208C31.7013 34.6736 30.9166 35 30 35H25C24.5277 35 24.1319 34.8403 23.8125 34.5208C23.493 34.2014 23.3333 33.8056 23.3333 33.3333V25C23.3333 24.5278 23.1736 24.132 22.8541 23.8125C22.5347 23.4931 22.1388 23.3333 21.6666 23.3333H18.3333C17.8611 23.3333 17.4652 23.4931 17.1458 23.8125C16.8263 24.132 16.6666 24.5278 16.6666 25V33.3333C16.6666 33.8056 16.5069 34.2014 16.1875 34.5208C15.868 34.8403 15.4722 35 15 35H9.99996C9.08329 35 8.29857 34.6736 7.64579 34.0208C6.99301 33.3681 6.66663 32.5833 6.66663 31.6667Z" fill="#5BCDC4"/>
</svg>
