<svg width="40" height="40" viewBox="0 0 40 40" fill="none" xmlns="http://www.w3.org/2000/svg">
<path d="M9.99996 31.6667H15V23.3333C15 22.8611 15.1597 22.4653 15.4791 22.1458C15.7986 21.8264 16.1944 21.6667 16.6666 21.6667H23.3333C23.8055 21.6667 24.2013 21.8264 24.5208 22.1458C24.8402 22.4653 25 22.8611 25 23.3333V31.6667H30V16.6667L20 9.16668L9.99996 16.6667V31.6667ZM6.66663 31.6667V16.6667C6.66663 16.1389 6.78468 15.6389 7.02079 15.1667C7.2569 14.6945 7.58329 14.3056 7.99996 14L18 6.50001C18.5833 6.05557 19.25 5.83334 20 5.83334C20.75 5.83334 21.4166 6.05557 22 6.50001L32 14C32.4166 14.3056 32.743 14.6945 32.9791 15.1667C33.2152 15.6389 33.3333 16.1389 33.3333 16.6667V31.6667C33.3333 32.5833 33.0069 33.3681 32.3541 34.0208C31.7013 34.6736 30.9166 35 30 35H23.3333C22.8611 35 22.4652 34.8403 22.1458 34.5208C21.8263 34.2014 21.6666 33.8056 21.6666 33.3333V25H18.3333V33.3333C18.3333 33.8056 18.1736 34.2014 17.8541 34.5208C17.5347 34.8403 17.1388 35 16.6666 35H9.99996C9.08329 35 8.29857 34.6736 7.64579 34.0208C6.99301 33.3681 6.66663 32.5833 6.66663 31.6667Z" fill="#E0E0E0"/>
</svg>
