<svg width="40" height="40" viewBox="0 0 40 40" fill="none" xmlns="http://www.w3.org/2000/svg">
<path d="M24.1667 30C23 30 22.0139 29.5972 21.2083 28.7917C20.4028 27.9861 20 27 20 25.8333C20 24.6667 20.4028 23.6805 21.2083 22.875C22.0139 22.0694 23 21.6667 24.1667 21.6667C25.3333 21.6667 26.3194 22.0694 27.125 22.875C27.9306 23.6805 28.3333 24.6667 28.3333 25.8333C28.3333 27 27.9306 27.9861 27.125 28.7917C26.3194 29.5972 25.3333 30 24.1667 30ZM8.33333 36.6667C7.41667 36.6667 6.63194 36.3403 5.97917 35.6875C5.32639 35.0347 5 34.25 5 33.3333V9.99999C5 9.08333 5.32639 8.29861 5.97917 7.64583C6.63194 6.99305 7.41667 6.66666 8.33333 6.66666H10V3.33333H13.3333V6.66666H26.6667V3.33333H30V6.66666H31.6667C32.5833 6.66666 33.3681 6.99305 34.0208 7.64583C34.6736 8.29861 35 9.08333 35 9.99999V33.3333C35 34.25 34.6736 35.0347 34.0208 35.6875C33.3681 36.3403 32.5833 36.6667 31.6667 36.6667H8.33333ZM8.33333 33.3333H31.6667V16.6667H8.33333V33.3333Z" fill="#5BCDC4"/>
</svg>
