<svg width="80" height="21" viewBox="0 0 80 21" fill="none" xmlns="http://www.w3.org/2000/svg">
<path d="M9.92751 20.5916C9.46938 21.1361 8.61731 21.1361 8.15918 20.5916L1.32649 12.4697C0.468913 11.4503 0 10.1709 0 8.85052C0 3.96251 4.04884 0 9.04335 0C14.0378 0 18.0867 3.96251 18.0867 8.85052C18.0867 10.1709 17.6178 11.4503 16.7602 12.4697L9.92751 20.5916Z" fill="#269088"/>
<path d="M9.26526 4.68399C9.36717 4.684 9.46795 4.70485 9.56116 4.74516L10.6344 5.20923C10.7723 5.26883 10.8961 5.3556 10.9982 5.46404L12.3113 6.85855C12.3616 6.91189 12.4446 6.92009 12.5047 6.87766L13.9174 5.88038C14.1893 5.68845 14.5702 5.7604 14.7496 6.03756C14.9163 6.29524 14.8461 6.63573 14.5903 6.80991L12.668 8.11869C12.292 8.37472 11.778 8.30501 11.4872 7.95857L10.6141 6.91832C10.549 6.84077 10.4247 6.85105 10.3738 6.93819L9.21713 8.91917C9.18135 8.98045 9.19643 9.05816 9.25274 9.10225L10.9735 10.4495C11.2709 10.6824 11.3812 11.0762 11.2466 11.4249L9.99887 14.6573C9.87911 14.9675 9.52925 15.1286 9.20869 15.0211C8.8849 14.9124 8.70987 14.5698 8.81539 14.2511L9.71927 11.5215C9.75796 11.4047 9.71623 11.2767 9.61558 11.2033L7.47038 9.63938C6.9383 9.25148 6.78375 8.53699 7.10961 7.97137L8.23638 6.01559C8.26302 5.96934 8.23083 5.91182 8.17667 5.90886L6.59467 5.82285C6.54042 5.81991 6.48898 5.8466 6.46102 5.8922L5.49715 7.46427C5.34102 7.71893 5.00452 7.80306 4.74273 7.65287C4.47516 7.49937 4.38871 7.1607 4.55108 6.90208L5.66498 5.1279C5.83816 4.85208 6.14525 4.68399 6.47604 4.68399H9.26526ZM6.69893 9.97902C6.71925 9.93838 6.77248 9.92613 6.8092 9.95361L7.81469 10.7061C7.84305 10.7273 7.85159 10.7655 7.83493 10.7964L7.13693 12.092C6.99348 12.3582 6.71121 12.5248 6.40367 12.5248H3.89105C3.56195 12.5248 3.29517 12.2638 3.29517 11.9417C3.29517 11.6196 3.56195 11.3585 3.89105 11.3585H5.62251C5.85955 11.3585 6.07587 11.2263 6.17999 11.0179L6.69893 9.97902ZM10.9096 2.22159C11.6044 2.2216 12.1676 2.77286 12.1676 3.45283C12.1676 4.13278 11.6044 4.68398 10.9096 4.68399C10.2148 4.68399 9.65157 4.13279 9.65155 3.45283C9.65155 2.77285 10.2148 2.22159 10.9096 2.22159Z" fill="#F7F7ED"/>
<path d="M29.3689 5.12055C29.6342 5.12057 29.8493 5.33071 29.8493 5.58993V6.5554C29.8492 6.81461 29.6342 7.02477 29.3689 7.02479H25.2909C25.0256 7.0248 24.8105 7.23495 24.8105 7.49417V9.15833C24.8105 9.41754 25.0256 9.6277 25.2909 9.62772H28.8776C29.1429 9.62774 29.358 9.83788 29.358 10.0971V11.0626C29.3579 11.3218 29.1428 11.5319 28.8776 11.532H25.2909C25.0256 11.532 24.8105 11.7421 24.8105 12.0013V15.575C24.8105 15.8342 24.5954 16.0444 24.3301 16.0444H22.9272C22.6619 16.0444 22.4468 15.8342 22.4468 15.575V5.58993C22.4468 5.3307 22.6619 5.12056 22.9272 5.12055H29.3689Z" fill="#141414"/>
<path d="M33.3225 5.12055C33.5878 5.12055 33.8029 5.3307 33.8029 5.58993V15.575C33.8029 15.8342 33.5878 16.0444 33.3225 16.0444H31.9196C31.6543 16.0444 31.4392 15.8342 31.4392 15.575V5.58993C31.4392 5.3307 31.6543 5.12056 31.9196 5.12055H33.3225Z" fill="#141414"/>
<path d="M44.0236 5.12055C44.2889 5.12055 44.504 5.3307 44.504 5.58993V6.5554C44.504 6.81462 44.2889 7.02479 44.0236 7.02479H41.5616C41.2963 7.02479 41.0812 7.23494 41.0812 7.49417V15.575C41.0812 15.8342 40.8661 16.0444 40.6008 16.0444H39.2252C38.9599 16.0444 38.7448 15.8342 38.7448 15.575V7.49417C38.7448 7.23496 38.5297 7.02482 38.2644 7.02479H35.8024C35.5371 7.02479 35.322 6.81462 35.322 6.5554V5.58993C35.322 5.3307 35.5371 5.12055 35.8024 5.12055H44.0236Z" fill="#141414"/>
<path d="M48.6091 5.12055C48.804 5.12057 48.9795 5.23565 49.0535 5.41185L51.9853 12.4008C52.0004 12.4366 52.0361 12.4599 52.0757 12.4599C52.1153 12.4599 52.151 12.4366 52.1661 12.4008L55.0979 5.41185C55.1719 5.23564 55.3475 5.12055 55.5424 5.12055H57.6548C57.9201 5.12055 58.1352 5.3307 58.1352 5.58993V15.575C58.1352 15.8342 57.9201 16.0444 57.6548 16.0444H56.3228C56.0575 16.0444 55.8424 15.8342 55.8424 15.575V8.98839C55.8424 8.95852 55.8176 8.9343 55.7871 8.9343C55.7645 8.9343 55.7441 8.94772 55.7357 8.96822L52.9772 15.6962C52.9042 15.8743 52.7276 15.9911 52.5313 15.9911H51.6206C51.424 15.9911 51.2473 15.874 51.1744 15.6957L48.4157 8.94163C48.4073 8.92109 48.3869 8.9076 48.3643 8.9076C48.3337 8.9076 48.3089 8.93183 48.3089 8.96169V15.575C48.3089 15.8342 48.0939 16.0444 47.8285 16.0444H46.4966C46.2312 16.0444 46.0162 15.8342 46.0162 15.575V5.58993C46.0162 5.3307 46.2312 5.12056 46.4966 5.12055H48.6091Z" fill="#141414"/>
<path fill-rule="evenodd" clip-rule="evenodd" d="M66.0399 5.12055C66.2449 5.12055 66.4272 5.24762 66.494 5.43695L70.0169 15.422C70.1244 15.7268 69.8927 16.0444 69.5628 16.0444H68.0526C67.8445 16.0444 67.66 15.9134 67.5957 15.72L66.8758 13.5534H62.8391L62.1177 15.7202C62.0534 15.9135 61.8689 16.0444 61.6609 16.0444H60.1509C59.8208 16.0444 59.589 15.7266 59.6967 15.4218L63.2246 5.43672C63.2915 5.24752 63.4738 5.12057 63.6786 5.12055H66.0399ZM64.8593 7.61679C64.8333 7.6168 64.8103 7.63319 64.8022 7.65736L63.4394 11.7506H66.2767L64.9166 7.65736C64.9085 7.63317 64.8854 7.61679 64.8593 7.61679Z" fill="#141414"/>
<path fill-rule="evenodd" clip-rule="evenodd" d="M75.9931 5.12055C76.841 5.12055 77.5634 5.27875 78.1603 5.59521C78.7571 5.90813 79.2121 6.34377 79.5251 6.90206C79.8417 7.45677 80 8.09683 80 8.82222C80 9.54763 79.8399 10.1878 79.5196 10.7425C79.1993 11.2972 78.7353 11.7292 78.1276 12.0386C77.5234 12.3479 76.7919 12.5027 75.9331 12.5027H73.9459V15.575C73.9459 15.8342 73.7308 16.0444 73.4655 16.0444H72.0626C71.7973 16.0444 71.5822 15.8342 71.5822 15.575V5.58993C71.5822 5.3307 71.7973 5.12056 72.0626 5.12055H75.9931ZM74.4263 7.00874C74.161 7.00876 73.9459 7.21891 73.9459 7.47813V10.6519H75.5509C76.0058 10.6519 76.3807 10.5753 76.6755 10.4224C76.9739 10.266 77.1959 10.0508 77.3415 9.77703C77.4907 9.49968 77.5653 9.18136 77.5653 8.82222C77.5653 8.45954 77.4907 8.14304 77.3415 7.8728C77.1959 7.59899 76.9739 7.3874 76.6755 7.23805C76.3771 7.08516 75.9986 7.00875 75.54 7.00874H74.4263Z" fill="#141414"/>
</svg>
